<?xml version="1.0" encoding="utf-8"?>
<!-- Generator: Adobe Illustrator 21.0.0, SVG Export Plug-In . SVG Version: 6.00 Build 0)  -->
<svg version="1.1" id="Layer_1" xmlns="http://www.w3.org/2000/svg" xmlns:xlink="http://www.w3.org/1999/xlink" x="0px" y="0px"
	 viewBox="0 0 1280 1024" style="enable-background:new 0 0 1280 1024;" xml:space="preserve">
<style type="text/css">
	.st0{fill:#1D2D2C;stroke:#754C24;stroke-width:0.75;stroke-miterlimit:10;}
	.st1{fill:#2D2B1D;stroke:#754C24;stroke-width:0.75;stroke-miterlimit:10;}
	.st2{stroke:#754C24;stroke-width:0.75;stroke-miterlimit:10;}
	.st3{fill:#FFFEF3;stroke:#B09676;stroke-width:0.75;stroke-miterlimit:10;}
	.st4{fill:#FFFDE7;stroke:#B09676;stroke-width:0.75;stroke-miterlimit:10;}
	.st5{fill:#FFFFFF;stroke:#FFFFFF;stroke-width:3;stroke-miterlimit:10;}
</style>
<g>
	<path class="st0" d="M952.6,276.1c0.4,0.8,1.2,1.5,2.3,1.7c7.7,1.9,15.9,2.9,24.2,2.9c8,0,16.1-0.8,23.9-2.5
		c16.1-3.5,30-10.2,39.9-19.5c0.7-0.7,1-1.6,0.6-2.4c-0.4-0.8-1.2-1.5-2.3-1.7c-15.1-3.7-32.2-3.8-48.1-0.4
		c-16.2,3.5-30,10.2-39.9,19.5C952.5,274.4,952.3,275.3,952.6,276.1z M995.3,259.3c12.7-2.8,26.2-3,38.5-0.8
		c-8.7,6.8-19.9,11.9-32.8,14.7c-12.7,2.8-26.2,3-38.5,0.8C971.1,267.2,982.4,262.1,995.3,259.3z"/>
	<path class="st0" d="M190.2,358.2c10.5,8,24.6,12.4,38.5,12.5c6.4,0,12.7-0.9,18.6-2.7c26.6-8.4,33.4-22.5,31-32.9
		c-2.9-12.2-14.7-16.8-24-17.2c-11.1-0.4-20.8,4.7-23.5,12.4c-0.5,1.4,0.7,2.9,2.6,3.2c1.9,0.4,3.9-0.5,4.4-1.9
		c2.2-6.1,9.7-8.7,16.2-8.4c6.9,0.2,15.1,3.7,17.2,12.8c2.6,10.9-7.4,21.1-26.8,27.2c-16,5.1-35.6,1.6-48.9-8.5
		c-13.6-10.4-16.4-24.6-7.3-37.9c9.4-13.8,30.8-22.7,57.1-23.9l215.1,0.1c0.6,0,1.2-0.1,1.7-0.3c54.3-0.6,122.4-15.4,181.8-53.5
		c59.1,38.4,127.1,53.7,181.4,54.7c0.5,0.2,1.1,0.3,1.7,0.3l214.9,1.4c26.5,1.3,47.8,10.4,57.2,24.2c9,13.4,6.1,27.5-7.6,37.9
		c-13.3,10.1-33,13.3-49,8.2c-19.3-6.2-29.2-16.5-26.6-27.4c2.2-9,10.4-12.5,17.3-12.6c6.4-0.2,14,2.4,16.1,8.5
		c0.5,1.4,2.5,2.3,4.4,1.9s3.1-1.8,2.6-3.2c-2.7-7.7-12.4-12.8-23.5-12.5c-9.3,0.2-21.2,4.8-24.1,17c-2.5,10.4,4.3,24.5,30.8,33.1
		c5.9,1.9,12.2,2.9,18.6,2.9c13.9,0,28-4.2,38.5-12.2c15.9-12,19.2-28.4,8.9-43.9c-10.5-15.6-34.1-25.8-63.4-27.2l-160.4-1
		c38.1-7.3,68.5-22.9,86.2-45c22.8-28.5,17.2-70-37.9-94.4c-34-15-87.3-11.6-112.4,17.6c-11,12.7-13.1,28.7-5.5,41.6
		c6.8,11.5,20.4,19.4,38.5,22.1c17.8,1.9,33.7-2.2,43.8-11.3c8.7-7.8,11.5-18.4,7.2-26.8c-5.6-11-20.5-14.8-32-13.6
		c-13.2,1.3-22.3,8.3-23.3,17.7c-0.1,1.5,1.3,2.7,3.4,2.8c1.9,0.1,3.7-1,3.9-2.4c0.8-8.3,9.4-12.1,17.1-12.9
		c9-0.9,19.9,1.9,24.1,10.2c3.5,6.8,1.1,15.3-6.1,21.7c-4.9,4.4-16.3,11.6-36.9,9.4c-15.5-2.4-27.3-9.1-33.1-19
		c-6.7-11.4-4.8-25.4,4.9-36.7c22.9-26.5,71.5-29.6,102.5-15.9c51.1,22.6,56.4,61,35.4,87.2c-22.6,28.2-67.2,45.3-122.4,46.9
		c-54.6,1.7-127.3-12.3-190-52.9c7.4-5,14.6-10.3,21.7-16c10.2,6.7,20.5,12.5,30.5,17.1c13.6,6.2,27.2,9.4,38.8,9.5
		c3.6,0,7-0.3,10.1-0.9c8.1-1.6,14.4-5.3,18.3-10.6c4.7-6.4,4.7-12.9,0-18.2c-4.5-5.2-12.8-8.3-21.2-8c-7.3,0.3-13.4,3.2-16.8,8
		c-0.9,1.3-0.2,2.9,1.6,3.5c1.8,0.7,4,0.1,4.9-1.2c2.2-3.2,6-5,10.6-5.1c5.7-0.2,11.6,2,14.7,5.6c2.2,2.6,4,6.9-0.3,12.9
		c-3,4.1-7.6,6.8-13.8,8c-11.4,2.2-27.1-0.7-43.2-8c-9.6-4.4-19.6-10-29.5-16.6c6.6-5.6,12.9-11.5,19.1-17.7
		c0.6-0.7,0.8-1.4,0.5-2.2c0,0,0,0,0-0.1s-0.1-0.2-0.2-0.3c-0.1-0.1-0.1-0.2-0.2-0.3l-0.1-0.1c-0.2-0.2-0.4-0.4-0.6-0.6
		c-7.5-5.1-15.7-11.1-23.7-17.8c19.9-19,36.4-38.9,46.1-55.3c0.8-1.3,0-2.9-1.9-3.5c-1.8-0.6-4,0-4.8,1.4
		c-9.2,15.5-25.2,34.7-44.4,53.1c-6.2-5.5-12.1-11.3-17.5-17.6c24.1-29,37.2-66.6-0.6-104.2c-0.7-0.7-1.8-1.1-2.9-1.1h-0.1h-0.1
		c-1.1,0-2.2,0.4-2.9,1.1c-38.1,37.4-25.3,75-1.4,104.2c-5.4,6.2-11.4,12-17.6,17.4c-19.1-18.6-34.9-37.8-44-53.4
		c-0.8-1.3-2.9-2-4.7-1.4s-2.7,2.1-1.9,3.5c9.6,16.5,26,36.4,45.7,55.6c-8.1,6.7-16.3,12.6-23.8,17.7c-0.3,0.2-0.5,0.4-0.6,0.6l0,0
		c-0.1,0.1-0.2,0.2-0.2,0.3c-0.1,0.1-0.1,0.2-0.1,0.3v0.1c-0.2,0.7-0.1,1.5,0.5,2.2c6.1,6.3,12.4,12.2,19,17.8
		c-10,6.5-20,12.1-29.6,16.4c-16.1,7.2-31.9,10-43.3,7.7c-6.2-1.3-10.8-4-13.7-8.1c-4.3-6-2.5-10.3-0.2-12.9c3.1-3.5,9-5.7,14.7-5.5
		c4.7,0.2,8.5,2.1,10.6,5.2c0.9,1.3,3.1,1.8,4.9,1.2c1.8-0.6,2.5-2.2,1.6-3.5c-3.3-4.9-9.4-7.8-16.7-8.2c-8.3-0.3-16.7,2.7-21.2,7.9
		c-4.7,5.3-4.7,11.7-0.1,18.2c3.9,5.4,10.2,9.1,18.2,10.7c3.1,0.6,6.5,1,10.1,1c11.6,0,25.2-3.1,38.9-9.2
		c10-4.5,20.4-10.2,30.6-16.9c7,5.8,14.2,11.1,21.5,16.1c-63,40.1-135.7,53.6-190.3,51.6c-55.2-2-99.7-19.4-122.1-47.8
		c-20.9-26.4-15.2-64.7,36-87c31.2-13.5,79.8-10.1,102.4,16.5c9.6,11.4,11.4,25.5,4.7,36.8c-5.9,9.9-17.7,16.5-33,18.8
		c-20.8,2-32.1-5.2-37-9.6c-7.1-6.5-9.4-15-5.9-21.7c4.3-8.3,15.2-11,24.2-10c7.7,0.8,16.2,4.7,17,13c0.1,1.5,1.9,2.6,3.9,2.5
		s3.5-1.4,3.4-2.8c-0.9-9.4-10-16.4-23.2-17.8c-11.5-1.2-26.4,2.4-32,13.4c-4.4,8.4-1.6,19,7.1,26.9c10,9.1,25.9,13.3,43.9,11.6
		c18-2.6,31.6-10.4,38.5-21.9c7.7-12.9,5.7-28.8-5.2-41.7c-24.9-29.3-78.2-33.1-112.3-18.3c-55.2,24-61.2,65.5-38.5,94.1
		c17.6,22.2,47.8,38.1,85.9,45.6H245.3c-29.1,1.2-52.8,11.2-63.4,26.8C171.1,329.7,174.3,346.1,190.2,358.2z M666,180.7
		c7.4,6.3,14.7,11.6,20.9,15.9c-5.4,5.4-11,10.5-16.7,15.4c-7.2-5-14.4-10.4-21.5-16.2C654.7,190.9,660.5,185.8,666,180.7z
		 M644.3,56.5c31.2,33.3,21.4,66.3-0.3,93.4C622.4,122.7,612.9,89.6,644.3,56.5z M644,159.4c5.4,6.1,11.3,11.9,17.2,17.1
		c-5.6,5.2-11.3,10.3-17.3,15.2c-5.9-5-11.7-10.1-17.2-15.3C632.6,171.2,638.5,165.5,644,159.4z M600.8,196.3
		c6.3-4.3,13.5-9.6,21-15.8c5.5,5.2,11.2,10.3,17.1,15.2c-7.1,5.7-14.3,11.1-21.6,16C611.7,206.9,606.1,201.7,600.8,196.3z
		 M622.2,215.8c7.3-5,14.6-10.3,21.7-16c7.1,5.7,14.3,11.1,21.6,16.2c-7.1,5.7-14.3,11.1-21.7,16
		C636.4,226.9,629.2,221.6,622.2,215.8z"/>
	<path class="st1" d="M284.1,275.8c7.8,1.8,15.8,2.7,23.9,2.7c8.4,0,16.5-0.9,24.3-2.7c1.1-0.3,2-0.9,2.3-1.7
		c0.4-0.8,0.1-1.7-0.6-2.4c-9.9-9.3-23.7-16.1-39.8-19.7c-16-3.6-33-3.6-48.2,0c-1.1,0.3-2,0.9-2.3,1.7s-0.1,1.7,0.6,2.4
		C254.2,265.4,268,272.2,284.1,275.8z M292,257c12.9,2.9,24.1,8,32.7,14.9c-12.3,2.1-25.8,1.8-38.5-1.1c-12.9-2.9-24.1-8-32.7-14.9
		C265.9,253.8,279.3,254.1,292,257z"/>
	<path class="st1" d="M95.3,517.7c12.3,8.5,27.3,13.8,43.2,15.5c0.2,0,0.3,0,0.5,0c1,0,2-0.3,2.7-0.8c0.8-0.6,1.2-1.5,0.9-2.3
		c-3.2-11.5-11.5-22.1-23.7-30.5c-12.3-8.4-27.2-13.8-43.2-15.5c-1.2-0.1-2.4,0.2-3.2,0.8c-0.8,0.6-1.2,1.5-0.9,2.3
		C74.8,498.8,83,509.3,95.3,517.7z M113.9,503.4c9.8,6.7,16.7,14.9,20.3,23.9c-12.5-2.1-24.1-6.6-33.9-13.4
		c-9.6-6.6-16.7-15-20.3-23.9C92.5,492.1,104.1,496.7,113.9,503.4z"/>
	<path class="st1" d="M452.6,923.5c-0.9-0.6-2.1-0.8-3.2-0.6s-2.1,0.8-2.5,1.6c-6.1,10.9-7.3,22.9-3.5,34.9s12.1,22.4,24.2,30.3
		c0.7,0.4,1.5,0.7,2.4,0.7c0.3,0,0.6,0,0.8-0.1c1.2-0.2,2.1-0.8,2.5-1.6c6.1-10.9,7.3-23,3.5-34.9
		C473.1,941.8,464.7,931.3,452.6,923.5z M468.5,983c-8.8-6.8-15-15.2-18.1-24.8c-3-9.6-2.6-19.2,1.3-28c8.8,6.8,15,15.3,18.1,24.8
		C472.8,964.5,472.3,974.1,468.5,983z"/>
	<path class="st2" d="M1211.4,633.5c-4.8,4.4-13.7,7.9-23.9,4.2c-1.8-0.6-4-0.1-4.8,1.2c-0.9,1.3-0.1,2.9,1.7,3.5
		c11.6,4.2,24.5,2,32.8-5.6c7.2-6.6,10.3-17.8,0-26.9c-7.9-7-21.8-10.5-35.5-9c-15.8,1.7-28.8,9.6-35.7,21.9
		c-5.8,12.6-3.4,25.1,6.9,35.2c11.5,11.3,31.5,18.1,52.2,17.6c47.3-1,78.4-32.6,77.7-61.6c-1-46.8-47.4-71.4-92.7-71.5
		c-0.1,0-0.1,0-0.2,0c-35.2-0.1-69.1,11-97.1,31.2l80-101.2c13-19,12.9-38.9-0.3-53.4c-13.1-14.3-34.3-20.5-56.6-16.6
		c-21.6,3.8-37.7,16.3-40,31.1c-3.2,21,10.2,32.4,23.8,36.1c15.9,4.3,27.4-0.8,32.4-6.5c6-6.8,4.7-15.5-3-21c-1.4-1-3.7-1-5.1,0
		s-1.4,2.7,0,3.7c6.2,4.5,5.5,10.5,2,14.4c-3.7,4.2-11.9,7.6-23.8,4.4c-14.3-3.9-21.4-15.3-19-30.5c1.9-12.6,15.8-23.3,34.5-26.6
		c19.2-3.4,37.5,2,48.8,14.4c11.7,12.9,11.7,30.8-0.1,47.9l-107.2,135.5c-0.3,0.4-0.4,0.8-0.5,1.2c-26.4,34.5-42.6,84.9-26.9,141.4
		c-63.9,15.3-111.1,43-141.2,71.7c-65.2-6.9-132-10.9-199.8-11.8c70.6-35.6,184.9-69.9,313.6-114.8c-29.8-90.7-33.3-177.4,0-258.6
		c-75.2-19.6-128-44.9-131.6-82.9c-95.6-13.9-171.6-33.8-210.9-65.2c2.9-2.8,4.7-6.3,4.7-10.1c0-9.2-10.2-16.7-22.8-16.7
		s-22.9,7.4-22.9,16.6c0,4.9,2.9,9.3,7.5,12.3c-40,30.1-114.8,49.5-208.1,63c-3.6,37.9-56.4,63.2-131.6,82.9
		c33.3,81.2,29.8,168,0,258.6c129.3,45.1,244,79.5,314.5,115.2c-69.8,1.7-138.3,6.6-205,14.6c-29.5-30.6-78.1-60.9-145.6-77.5
		c16.1-56.4,0.2-106.9-26-141.5c0-0.4-0.2-0.8-0.5-1.2L120,466.7c-11.7-17.3-11.7-35.3,0.2-48.1c11.4-12.3,29.7-17.6,48.9-14.1
		c18.7,3.4,32.5,14.2,34.3,26.8c2.2,15.3-5,26.6-19.3,30.4c-11.9,3.1-20-0.3-23.7-4.6c-3.5-4-4.2-10,2.1-14.4c1.4-1,1.5-2.7,0.1-3.7
		s-3.7-1.1-5.1-0.1c-7.8,5.5-9.1,14.2-3.1,21c5,5.7,16.4,10.9,32.3,6.7c13.6-3.6,27.1-14.9,24-35.9c-2.2-14.8-18.2-27.4-39.8-31.4
		c-22.3-4.1-43.5,2-56.7,16.3c-13.3,14.4-13.6,34.3-0.6,53.5l79.3,101.6c-27.8-20.4-61.7-31.7-96.9-31.9
		c-45.2-0.2-92,24.1-93.3,70.9c-0.8,28.9,30,60.8,77.3,62.1c20.7,0.6,40.7-6.1,52.3-17.3c10.3-10,12.9-22.5,7-35.3
		c-6.7-12.1-19.6-20.1-35.4-22c-13.7-1.6-27.6,1.9-35.6,8.8c-10.3,9-7.3,20.3-0.2,27c8.2,7.6,21.1,9.9,32.7,5.9
		c1.8-0.6,2.6-2.2,1.7-3.5s-3-1.9-4.8-1.2c-10.3,3.6-19.1,0.1-23.9-4.3c-5.6-5.2-7.8-13.5,0-20.3c6.3-5.5,17.6-8.3,28.8-7
		c7.8,0.9,22,4.5,29.7,18.6c5,11,2.9,21.7-6,30.3c-10.2,9.9-28,15.7-46.2,15.2C37.1,665.5,9,636.4,9.8,610
		c1.2-43.4,44.1-65.9,85.9-65.7h0.1c44.9,0.2,87.6,19.8,117.3,53.7c29.4,33.6,49.2,86.3,32.4,146c-9.6-2.2-19.6-4.1-29.9-5.7
		c2.9-9.8,4.6-19.2,5-27.7c0.7-15.2-4.6-28-14.3-35.1c-5.9-4.3-13.5-6.5-21.8-6.3c-10,0.3-17.6,3.5-21.6,9
		c-3.9,5.4-3.5,12.2,1.1,17.3c4,4.5,10.5,6.9,18,6.6c2-0.1,3.5-1.3,3.4-2.8s-1.8-2.6-3.8-2.5c-4.8,0.2-8.9-1.3-11.5-4.1
		c-3.1-3.5-3.4-8.3-0.7-12c1.9-2.7,6.2-6,15.5-6.2c6.3-0.2,11.9,1.4,16.4,4.7c8.4,6.1,12.8,17.4,12.2,31.2c-0.4,8.2-2.1,17.3-5,26.9
		c-9.9-1.4-20.1-2.4-30.7-3.2c-1.1-0.1-2.1,0.2-2.8,0.7l-0.1,0.1c-0.1,0.1-0.2,0.1-0.3,0.2c-0.1,0.1-0.2,0.2-0.3,0.3
		c0,0,0,0-0.1,0.1c-0.2,0.2-0.3,0.4-0.4,0.7c-2.3,7.3-5.3,15.4-9.3,23.8c-32.6-3-64.5-3.6-88.9-1.5c-2,0.2-3.4,1.5-3.2,2.9
		c0.2,1.4,2,2.5,4,2.3c23.1-2,53.9-1.4,85.5,1.5c-3.4,6.6-7.4,13.3-12.1,19.8c-46.6-0.7-97.9,9.7-123.7,52.3
		c-0.5,0.8-0.4,1.7,0.2,2.4c0,0,0,0.1,0.1,0.1c0,0,0,0,0,0.1c0.6,0.7,1.5,1.2,2.7,1.3c5.3,0.5,10.5,0.7,15.5,0.7
		c54.4,0.2,88.4-24.6,109.2-51.7c10.1,0.3,20.1,1.2,29.6,2.4c-12.6,21.3-27.5,40.9-41.5,54.3c-1.2,1.2-0.9,2.8,0.7,3.7
		c0.7,0.4,1.4,0.5,2.2,0.5c1.1,0,2.2-0.4,2.9-1c14.8-14.2,30.3-34.5,43.2-56.5c12,1.8,23.1,4,33,6.2c0.4,0.1,0.7,0.1,1.1,0.1
		c0,0,0,0,0.1,0h0.1c0.1,0,0.2,0,0.3,0c1.2-0.1,2.4-0.6,2.9-1.5c4.4-7,8.3-13.9,11.7-20.8c12.7,3.1,24.4,6.6,34.4,10.5
		c16.6,6.6,27.9,15.1,30.8,23.4c1.6,4.5,0.7,8.8-2.7,12.7c-5,5.7-11,6.7-15.2,6.6c-5.8-0.2-11.4-2.9-13.9-6.6
		c-2.1-3.1-1.8-6.3,0.9-9.3c1.1-1.2,0.6-2.8-1-3.7c-1.7-0.8-3.9-0.5-5,0.7c-4.1,4.5-4.6,9.8-1.3,14.6c3.8,5.4,11.6,9.1,20,9.5
		c0.4,0,0.7,0,1.1,0c8.2,0,15.4-3.1,20.6-9c4.5-5.1,5.7-10.9,3.6-16.9c-3.5-9.7-16-19.5-34.4-26.8c-10.4-4.1-22.4-7.7-35.5-10.9
		c3.3-7.3,6.1-14.5,8.4-21.6c63.9,15.8,110.5,44.3,139.2,73.3c-41.9,5.2-83,11.6-123.4,19.3l27.4,24.4
		c-17.1,2.7-32.7,11.4-41.6,23.4c-22.4,30.3-0.2,65.8,34.5,79.9c18.1,7.4,35.8,10.6,52.2,10.6c34.7,0.1,63.7-13.9,79.1-33.3
		c9.6-12,15-25.5,16.4-39.7c7.4-1,14.8-1.9,22.2-2.7l53.1,66.8c15.2,16.8,37.4,26.6,59.9,26.7c1.3,0,2.5,0,3.8-0.1
		c23.6-1.1,41.5-11.3,48-27.3c6.3-15.5-0.6-31.9-17.1-40.8c-23.3-12.6-43.6-9.8-54.7-3.1c-13.1,7.9-12.7,17.7-8.4,23.7
		c5.1,7.2,16,10.7,26.5,8.7c1.9-0.4,3.1-1.8,2.5-3.2c-0.5-1.4-2.5-2.2-4.5-1.9c-8.4,1.7-15.2-1.8-18.2-6c-3.2-4.5-3.2-11.3,6.6-17.2
		c11.7-7.1,28.9-5.8,45.8,3.3c14,7.6,19.9,21.6,14.4,35.1c-5.6,13.8-21.1,22.6-41.5,23.5c-21.2,1-42.5-8.1-57-24.1L464.9,905
		c63-7,127.8-10.5,193.7-10.5c55.4,0,109.9,2.5,163.2,7.4l-55.4,68.7c-14.7,16-36.1,24.9-57.3,23.8c-20.4-1.1-35.9-10-41.3-23.8
		c-5.3-13.5,0.6-27.5,14.7-35c17-9,34.2-10.1,45.8-3c9.7,5.9,9.7,12.8,6.4,17.2c-3,4.2-9.8,7.6-18.2,5.9c-1.9-0.4-3.9,0.4-4.5,1.8
		c-0.5,1.4,0.6,2.9,2.5,3.3c10.5,2.2,21.4-1.3,26.6-8.5c4.3-6,4.8-15.8-8.2-23.7c-11.1-6.8-31.3-9.6-54.8,2.8
		c-16.5,8.8-23.5,25.1-17.4,40.7c6.4,16.1,24.2,26.4,47.8,27.6c1.2,0.1,2.5,0.1,3.8,0.1c22.5,0.1,44.7-9.6,60.2-26.4l57.1-70.8
		c6.1,0.6,12.2,1.2,18.3,1.9c0.3,16.2,5.7,31.6,16.4,45.3c15.3,19.5,44.3,33.7,78.9,33.8c16.4,0.1,34.2-3.1,52.3-10.3
		c34.8-13.9,57.2-49.2,35.1-79.6c-4.7-6.4-11.2-11.9-18.9-16l38.7-34.3c-14.1-2.7-28.4-5.2-42.7-7.6c3.8-1.6,6.9-4,8.9-6.9
		c3.3-4.7,2.9-10-1.2-14.6c-1.1-1.2-3.3-1.6-5-0.8s-2.1,2.4-1,3.7c2.7,3,3,6.3,0.8,9.3c-2.6,3.7-8.2,6.3-14,6.5
		c-4.2,0.1-10.2-0.9-15.1-6.7c-3.4-3.9-4.3-8.2-2.6-12.7c3-8.3,14.3-16.8,31-23.2c10-3.9,21.7-7.3,34.5-10.3
		c3.3,6.9,7.2,13.9,11.6,20.9c0.5,0.9,1.7,1.4,2.9,1.5c0.1,0,0.2,0,0.3,0h0.1c0,0,0,0,0.1,0c0.4,0,0.7,0,1.1-0.1
		c9.8-2.2,21-4.3,33-6c12.7,22.1,28.1,42.5,42.8,56.8c0.7,0.7,1.8,1.1,2.9,1.1c0.8,0,1.5-0.2,2.2-0.5c1.6-0.9,1.9-2.5,0.7-3.7
		c-13.9-13.6-28.7-33.3-41.1-54.6c9.6-1.1,19.5-2,29.6-2.2c20.6,27.2,54.4,52.3,108.8,52.5c5,0,10.2-0.2,15.5-0.6
		c1.2-0.1,2.2-0.6,2.7-1.3c0,0,0,0,0.1-0.1c0,0,0-0.1,0.1-0.1c0.6-0.7,0.7-1.6,0.2-2.4c-25.5-42.8-76.7-53.6-123.4-53.1
		c-4.7-6.5-8.6-13.2-12-19.9c31.6-2.7,62.5-3,85.5-0.9c2,0.2,3.8-0.8,4.1-2.3c0.2-1.4-1.2-2.8-3.2-2.9c-24.4-2.2-56.3-1.9-88.9,0.9
		c-3.9-8.4-6.9-16.6-9.1-23.9c-0.1-0.2-0.2-0.5-0.4-0.7c0,0,0-0.1-0.1-0.1c-0.1-0.1-0.2-0.2-0.3-0.3c-0.1-0.1-0.2-0.2-0.3-0.2
		l-0.1-0.1c-0.7-0.5-1.7-0.8-2.8-0.7c-10.6,0.7-20.8,1.7-30.7,3c-2.8-9.5-4.5-18.7-4.8-26.9c-0.5-13.8,4-25.1,12.4-31.1
		c4.6-3.3,10.1-4.8,16.5-4.6c9.3,0.3,13.5,3.6,15.4,6.3c2.6,3.7,2.3,8.6-0.8,12c-2.6,2.9-6.7,4.3-11.5,4.1c-2-0.1-3.7,1-3.8,2.5
		c-0.1,1.5,1.4,2.7,3.4,2.8c7.5,0.4,14-2,18-6.4c4.6-5.1,5-11.9,1.2-17.3c-3.9-5.6-11.6-8.8-21.6-9.2c-8.3-0.3-15.9,1.8-21.9,6.1
		c-9.9,7-15.2,19.8-14.6,35c0.3,8.6,2,18,4.8,27.8c-10.3,1.5-20.3,3.4-29.9,5.5c-16.4-59.8,3.8-112.4,33.4-145.8
		c29.9-33.7,72.8-53,117.7-52.9c0.1,0,0.1,0,0.1,0c41.8,0.1,84.5,22.9,85.5,66.3c0.6,26.4-27.7,55.3-70.7,56.2
		c-18.3,0.4-36-5.6-46.1-15.5c-8.8-8.7-10.9-19.4-5.9-30.2c7.9-14.1,22.1-17.7,29.9-18.5c11.2-1.2,22.5,1.6,28.8,7.2
		C1219.2,620.1,1217,628.4,1211.4,633.5z M35,836c24-36.3,68.2-46.6,111.3-46.3C124.7,816.9,90.2,839.3,35,836z M180.3,739.4
		c9.1,0.7,18,1.7,26.6,2.9c-2.3,7.1-5.2,14.3-8.5,21.6c-8.8-1.3-17.7-2.4-26.6-3.3C175.6,752.7,178.3,745.5,180.3,739.4z
		 M186.4,787.5c-9.1-1.1-18.8-2-28.9-2.4c4.6-6.5,8.5-13,11.7-19.3c9,0.9,18,2,26.8,3.3C193.1,775.2,189.9,781.4,186.4,787.5z
		 M223.2,793.9c-8.2-1.8-18.2-3.8-29.3-5.4c3.4-6.1,6.6-12.2,9.5-18.4c10.3,1.6,20.4,3.5,29.9,5.6
		C230.4,781.7,227,787.8,223.2,793.9z M235.7,770.7c-9.6-2.1-19.6-4-29.9-5.7c3.3-7.3,6.1-14.6,8.4-21.7c10.4,1.6,20.3,3.5,29.9,5.7
		C241.8,756.2,239.1,763.4,235.7,770.7z M412.4,945.6c-20.9,26.3-69.4,41.8-121.6,20.7c-31.7-12.9-52-45.2-31.7-72.8
		c8.5-11.5,24-19.6,40.5-21.2l46.1,41c-4.4,6.9-12.9,12-22,13.1c-12,1.4-20.8-4.1-24.1-10.2c-2.9-5.3-2.6-12.5,6.9-17.2
		c1.7-0.8,2.1-2.4,1-3.7c-1.1-1.2-3.4-1.5-5-0.7c-10.8,5.3-14.5,14.5-9.6,23.5c4.3,7.8,16.1,15.4,32,13.5
		c10.4-1.2,20.1-6.5,25.8-13.9l3.8,3.4c24-4.4,48.4-8.3,73.1-11.6C426.1,922.5,421.1,934.7,412.4,945.6z M657.1,282.4
		c-4-3.5-7.5-7.2-10.5-11.1c-3.7,4.7-8.1,9.2-13.2,13.4c-3.1-2.1-5.1-5.1-5.1-8.4c0-6.3,7-11.3,15.6-11.3s15.6,5.1,15.6,11.4
		C659.4,278.6,658.5,280.7,657.1,282.4z M1248.8,840.1c-55.2,2.9-89.7-19.8-111-47.1C1180.9,793.1,1225,803.7,1248.8,840.1z
		 M1007.2,881.7c6.9,3.7,12.9,8.6,17.1,14.4c20.2,27.7-0.4,59.9-32.2,72.5c-52.3,20.8-100.7,5-121.4-21.5
		c-9.9-12.6-15-26.8-15.4-41.8c25.2,2.8,50.1,6.2,74.6,10.2c0,0.1,0.1,0.2,0.1,0.2c5,9.4,16.1,16.5,28.3,18
		c15.9,2,27.8-5.5,32.1-13.3c4-7.3,2.3-14.8-4.2-20.2L1007.2,881.7z M981.6,904.4c4.7,4.4,4.4,9.9,2.1,14
		c-3.4,6.1-12.2,11.6-24.2,10.1c-8.4-1.1-16.2-5.5-20.8-11.6c8,1.3,16.1,2.7,24,4.2L981.6,904.4z M1060.9,796.7
		c-3.7-6.1-7.1-12.2-10-18.2c9.6-2,19.6-3.8,29.9-5.4c2.9,6.2,6,12.4,9.4,18.4C1079.1,793,1069.1,794.9,1060.9,796.7z M1126.5,788.3
		c-10,0.3-19.7,1.2-28.9,2.3c-3.4-6.1-6.6-12.3-9.5-18.5c8.9-1.2,17.8-2.3,26.8-3.1C1118.2,775.2,1122,781.8,1126.5,788.3z
		 M1104.1,742.5c2,6.1,4.7,13.3,8.3,21.2c-8.9,0.9-17.8,1.9-26.6,3.2c-3.2-7.3-6-14.6-8.3-21.6
		C1086.1,744.1,1095,743.2,1104.1,742.5z M1070.3,746.2c2.3,7.1,5,14.4,8.2,21.7c-10.3,1.6-20.4,3.4-30,5.5
		c-3.3-7.3-6-14.6-8.2-21.7C1049.9,749.6,1059.9,747.7,1070.3,746.2z M1033.4,753.3c2.2,7.1,4.9,14.4,8.2,21.7
		c-13.1,3.1-25.1,6.6-35.5,10.7c-18.4,7.2-31.1,16.8-34.6,26.5c-2.1,5.9-0.9,11.7,3.5,16.9c0.5,0.6,1.1,1.2,1.6,1.7
		c-25.6-3.8-51.6-7.2-77.8-10.1C928.1,793.7,973,767.8,1033.4,753.3z"/>
	<path class="st1" d="M1143.2,533.4c-0.2,0.8,0.1,1.7,0.9,2.3c0.7,0.5,1.6,0.8,2.6,0.8c0.2,0,0.3,0,0.5,0c16-1.6,31-6.8,43.4-15.2
		c12.3-8.3,20.6-18.8,23.9-30.3c0.2-0.8-0.1-1.7-0.9-2.3c-0.8-0.6-2-0.9-3.1-0.8c-16,1.6-31,6.8-43.3,15.2
		C1154.9,511.4,1146.6,521.9,1143.2,533.4z M1206.1,493.8c-3.6,8.9-10.8,17.2-20.4,23.7c-9.9,6.7-21.5,11.2-34,13.1
		c3.6-8.9,10.6-17.1,20.5-23.7C1182,500.3,1193.6,495.8,1206.1,493.8z"/>
	<path class="st1" d="M833.8,924.1c-1.2-0.2-2.4,0-3.2,0.6c-12.1,7.8-20.5,18.2-24.4,30.2c-3.9,11.9-2.7,24,3.3,34.9
		c0.4,0.8,1.4,1.4,2.5,1.6c0.3,0.1,0.5,0.1,0.8,0.1c0.9,0,1.7-0.2,2.4-0.7c12.1-7.8,20.5-18.2,24.4-30.1c3.9-12,2.7-24-3.3-35
		C835.9,924.9,835,924.3,833.8,924.1z M832.6,959.5c-3.1,9.5-9.4,18-18.2,24.7c-3.8-8.9-4.2-18.5-1.1-28c3.1-9.5,9.4-18,18.2-24.7
		C835.3,940.3,835.7,949.9,832.6,959.5z"/>
	<path class="st1" d="M297.5,743.8c12.6,0,22.9-7.4,22.9-16.6c0-9.2-10.2-16.7-22.8-16.7c-12.6,0-22.9,7.4-22.9,16.5
		C274.6,736.3,284.9,743.8,297.5,743.8z M297.5,715.9c8.6,0,15.6,5.1,15.6,11.4c0,6.3-7,11.3-15.6,11.3s-15.6-5.1-15.6-11.4
		C281.9,720.9,289,715.8,297.5,715.9z"/>
	<path class="st1" d="M985.6,711.8c-12.6,0-22.9,7.4-22.9,16.5c0,9.2,10.2,16.7,22.8,16.7s22.9-7.4,22.9-16.6
		C1008.5,719.3,998.3,711.8,985.6,711.8z M985.6,739.8c-8.6,0-15.6-5.1-15.6-11.4c0-6.3,7-11.3,15.6-11.3s15.6,5.1,15.6,11.4
		C1001.2,734.7,994.2,739.8,985.6,739.8z"/>
	<path class="st3" d="M414,874.6l10.7,1.2v1.4h-41v-1.4l10.5-1.2v-26l-9.3-1.2V846h34c8.4,0,11.9,0.4,14.5,1.9l25,13.8l10.7,8.5h0.6
		c0-2.2-0.9-5-0.9-7.1v-14.4l-9.6-1.2V846h38.4v1.4l-9.6,1.2v28.6h-23.5c-6.7,0-10.2-0.6-11.6-1.6L411.7,851c-0.3,0-0.6,0-0.9,0
		l3.2,4.2L414,874.6L414,874.6z"/>
	<path class="st3" d="M548.7,868.9l-8.4,6.1l9.6,0.8v1.4h-36.6v-1.4l9.3-0.9c12.8-9.2,27.3-20,40.7-29.1h28.2l41.9,28.9l9.3,1v1.4
		h-47.4V876l9-1l-8.4-6.1H548.7z M572,851.5c-5.5,3.9-13.1,9.5-19.8,14.7H592l-19.8-14.7H572z"/>
	<path class="st4" d="M686,874.6l10.4,1.2v1.4H656v-1.4l10.5-1.2v-26l-9.9-1.2V846h38.1c12.5,0,16.9,0.2,19.8,2.2
		c9.3,8.8,14.6,14.5,19.8,23.2h0.5l22.1-23.4c2.1-1.7,5.6-1.9,15.8-1.9h39.9v1.3l-9.9,1.2v26l11.1,1.4v1.3h-50.3V876l11.1-1.4
		c0-20.9,0-20.9,0-20.8v-4.5h-0.9L746,877h-22.9c-5.8,0-8.4-0.4-9.3-1.3c-8.1-8.9-16-17.2-25.3-26.1h-3.8l1.5,5.6v19.4H686z"/>
	<path class="st3" d="M840.1,877.2v-1.3l11.4-1.4v-26.1l-9.7-1.2V846h93.7v7h-13.7l-7.6-4.2H880v11.5h23.8l7.3-2.4h8.1v7.5h-8.1
		l-7.3-2.3H880v9.7c0,0.7-1.1,1.1-5.8,1.4v0.2h43.3l9.3-4.2H939v7H840.1z"/>
	<path class="st5" d="M511,687.2l29,13.6v15.8H427.9v-15.8l29.1-13.6V401.7l-27.4-13.6v-14.7h105.6c34.7,0,46.8,2.2,54.9,23.9
		c25.8,96.3,40.4,158.8,54.8,254.5h1.5l61.3-257.2c5.8-19,15.4-21.2,43.7-21.2h110.5v14.7l-27.5,13.6v284.9l30.7,15.2v14.7H725.5
		v-14.7l30.6-15.2c0-229.5,0-229,0-228.4v-49.5h-2.4l-76.7,304h-63.5c-16.2,0-23.4-4.4-25.8-14.2c-22.6-97.4-44.4-189.3-70.2-286
		H507l4.1,62L511,687.2L511,687.2z"/>
</g>
</svg>
