<svg id="Layer_1" data-name="Layer 1" xmlns="http://www.w3.org/2000/svg" viewBox="0 0 317 341.943">
  <defs>
    <style>
      .cls-1, .cls-5, .cls-8 {
        fill: #fff;
      }

      .cls-2, .cls-3, .cls-4 {
        fill: none;
      }

      .cls-2, .cls-6, .cls-7, .cls-8 {
        stroke: #fff;
      }

      .cls-2, .cls-3, .cls-4, .cls-5, .cls-6, .cls-7, .cls-8 {
        stroke-miterlimit: 10;
      }

      .cls-2 {
        stroke-width: 4px;
      }

      .cls-3, .cls-4, .cls-5 {
        stroke: #000;
      }

      .cls-3 {
        stroke-width: 2px;
      }

      .cls-4 {
        stroke-linecap: round;
        stroke-width: 8px;
        stroke-dasharray: 0 16.989;
      }

      .cls-6 {
        fill: #fffac2;
      }

      .cls-6, .cls-7 {
        stroke-width: 0.75px;
      }

      .cls-8 {
        stroke-width: 3px;
      }
    </style>
  </defs>
  <title>GYM</title>
  <circle cx="158.5" cy="183.743" r="156.5"/>
  <circle cx="158.5" cy="183.743" r="156.5"/>
  <path d="M656,342.5c0,3.3-4.1,6.455-4.3,9.7-.2,3.292,3.471,6.929,3.066,10.163-.409,3.27-4.869,5.889-5.476,9.093-.614,3.236,2.576,7.3,1.766,10.467-.816,3.188-5.57,5.224-6.579,8.33-1.016,3.128,1.634,7.568.43,10.606-1.211,3.056-6.184,4.475-7.578,7.433s.668,7.71-.91,10.576-6.7,3.659-8.453,6.421-.3,7.73-2.229,10.378-7.1,2.79-9.189,5.313-1.264,7.63-3.507,10.018-7.391,1.881-9.78,4.126-2.2,7.411-4.728,9.5-7.565.944-10.218,2.874-3.108,7.077-5.877,8.839-7.621-.011-10.5,1.573-3.968,6.631-6.94,8.032-7.556-.97-10.612.241c-3.038,1.2-4.769,6.077-7.9,7.093-3.106,1.009-7.369-1.917-10.557-1.1-3.162.809-5.494,5.425-8.73,6.039-3.2.608-7.064-2.832-10.334-2.423-3.234.4-6.127,4.691-9.419,4.9-3.25.2-6.651-3.693-9.953-3.693s-6.7,3.894-9.952,3.693c-3.292-.2-6.185-4.491-9.419-4.895-3.27-.409-7.13,3.031-10.335,2.423-3.236-.614-5.568-5.229-8.73-6.039-3.188-.816-7.451,2.109-10.557,1.1-3.128-1.016-4.859-5.889-7.9-7.093-3.056-1.211-7.654,1.153-10.612-.241s-4.074-6.453-6.94-8.032-7.735.183-10.5-1.574-3.23-6.912-5.878-8.839-7.695-.785-10.218-2.875-2.34-7.26-4.728-9.5-7.535-1.737-9.78-4.126-1.415-7.493-3.507-10.018-7.259-2.66-9.189-5.313-.468-7.608-2.229-10.378-6.868-3.545-8.452-6.42.491-7.6-.91-10.575-6.367-4.377-7.578-7.433c-1.2-3.038,1.446-7.478.43-10.606-1.009-3.106-5.762-5.141-6.579-8.329-.809-3.162,2.38-7.231,1.766-10.467-.608-3.2-5.067-5.822-5.476-9.093-.4-3.234,3.27-6.871,3.066-10.163-.2-3.25-4.3-6.4-4.3-9.705s4.1-6.455,4.3-9.7c.2-3.292-3.471-6.929-3.066-10.163.409-3.27,4.869-5.889,5.476-9.093.614-3.236-2.576-7.3-1.766-10.467.816-3.188,5.57-5.224,6.579-8.33,1.016-3.128-1.634-7.568-.43-10.606,1.211-3.056,6.184-4.475,7.578-7.433s-.668-7.71.91-10.576,6.7-3.659,8.453-6.421.3-7.73,2.229-10.378,7.1-2.79,9.189-5.313,1.264-7.63,3.507-10.018,7.391-1.881,9.78-4.126,2.2-7.411,4.728-9.5,7.565-.944,10.218-2.874,3.108-7.077,5.877-8.839,7.621.011,10.5-1.573,3.968-6.631,6.94-8.032,7.556.97,10.612-.241c3.038-1.2,4.769-6.077,7.9-7.093,3.106-1.009,7.369,1.917,10.557,1.1,3.162-.809,5.494-5.425,8.73-6.039,3.2-.608,7.064,2.832,10.334,2.423,3.234-.4,6.127-4.691,9.419-4.9,3.25-.2,6.651,3.693,9.953,3.693s6.7-3.894,9.952-3.693c3.292.2,6.185,4.491,9.419,4.895,3.27.409,7.13-3.031,10.335-2.423,3.236.614,5.568,5.229,8.73,6.039,3.188.816,7.451-2.109,10.557-1.1,3.128,1.016,4.859,5.889,7.9,7.093,3.056,1.211,7.654-1.153,10.612.241s4.074,6.453,6.94,8.032,7.735-.183,10.5,1.574,3.23,6.912,5.878,8.839,7.695.785,10.218,2.875,2.34,7.26,4.728,9.5,7.535,1.737,9.78,4.126,1.415,7.493,3.507,10.018,7.259,2.66,9.189,5.313.468,7.608,2.229,10.378,6.868,3.545,8.452,6.42-.491,7.6.91,10.575,6.367,4.377,7.578,7.433c1.2,3.038-1.446,7.478-.43,10.606,1.009,3.106,5.762,5.141,6.579,8.329.809,3.162-2.38,7.231-1.766,10.467.608,3.2,5.067,5.822,5.476,9.093.4,3.234-3.27,6.871-3.066,10.163C651.9,336.045,656,339.2,656,342.5Z" transform="translate(-339 -158.757)"/>
  <g>
    <path class="cls-1" d="M431.856,245.713q.526.3.96.574a2.294,2.294,0,0,1-.232.685,5.224,5.224,0,0,1-.5.783c-.059.072-.126.159-.2.263s-.168.218-.271.342q-.248.213-.586.521t-.785.74a13.954,13.954,0,0,1-.6,1.795,4.6,4.6,0,0,1-.611,1.088l-.048.217a4.424,4.424,0,0,1-.578.774q-.374.412-.922.917a.652.652,0,0,1-.317.034,2.867,2.867,0,0,1-.475-.1c.011-.111.021-.253.033-.426s.017-.372.017-.6a1.461,1.461,0,0,1,.081-.559,1.605,1.605,0,0,1,.343-.527q.249-.285.522-.67a2.292,2.292,0,0,1,.11-.313c.049-.115.1-.25.155-.4a2.841,2.841,0,0,0,.224-.6c.061-.232.117-.5.167-.81q.1-.62.157-.993c.039-.249.06-.4.063-.46a2.62,2.62,0,0,1-.018-.344,1.443,1.443,0,0,1,.054-.341c-.022-.207-.054-.467-.091-.779s-.076-.679-.116-1.1a1.962,1.962,0,0,0,.016-.214c0-.09.009-.191.021-.3a1.69,1.69,0,0,0-.209-.825,7.006,7.006,0,0,0-.684-1.087,2.572,2.572,0,0,0-.855-.708,5.253,5.253,0,0,0-1.364-.468,7.857,7.857,0,0,0-1.337-.16,5.719,5.719,0,0,0-1.235.087c-.3.053-.579.1-.846.133s-.511.07-.729.1q.209.545.606,1.482t1,2.251q.683,1.481,1.132,2.365a9.575,9.575,0,0,0,.649,1.154c.075.176.157.349.245.517l.962,2.042a8.168,8.168,0,0,1,.138,1.312c0,.311-.046.5-.129.559q-.064.048-.2-.016a1.85,1.85,0,0,1-.354-.247l-.273-.6a1.047,1.047,0,0,1-.168-.112c-.256-.417-.516-.838-.783-1.26s-.53-.844-.789-1.268q-.451-.7-.8-1.353t-.606-1.229l-.45-.379a3.593,3.593,0,0,0-.2-.507c-.092-.193-.207-.406-.344-.64q-.274-.442-.437-.718a2.158,2.158,0,0,1-.2-.4c-.035-.1-.083-.214-.146-.354s-.138-.308-.228-.5a1.651,1.651,0,0,1,.03-.618,2.921,2.921,0,0,0,.05-.7,1.042,1.042,0,0,0,.223-.284.183.183,0,0,0-.008-.2c-.031-.042-.092-.052-.184-.031a1.493,1.493,0,0,0-.364.16,1.707,1.707,0,0,1-.247.148,1.575,1.575,0,0,1-.322.122l-1.008.19a1.839,1.839,0,0,1-.518.05.379.379,0,0,1-.292-.134c-.053-.146-.112-.29-.177-.428l-.326-.219a.737.737,0,0,1-.176-.15.22.22,0,0,1-.053-.156.177.177,0,0,1,.078-.129c.19-.095.357-.178.5-.247.047-.063.092-.127.137-.193s.088-.133.129-.2a2.649,2.649,0,0,1,.412-.257,1.793,1.793,0,0,1,.311-.127c.115-.021.236-.04.362-.06s.244-.042.354-.069l.255-.259a.327.327,0,0,1,.112-.056,1.629,1.629,0,0,0,.359-.064,3.062,3.062,0,0,0,.428-.158q.243-.125.427-.2a1.637,1.637,0,0,1,.307-.1q1.324-.215,2.366-.312a10.519,10.519,0,0,1,1.818-.031,5.374,5.374,0,0,1,2.11.559,4.312,4.312,0,0,1,1.485,1.261,7.169,7.169,0,0,1,1.247,3.234,17.283,17.283,0,0,1-.009,4.631,4.008,4.008,0,0,1,.246-.366c.105-.145.227-.315.362-.509q.473-.55.969-1.143a5.106,5.106,0,0,0,.466-.711A1.8,1.8,0,0,0,431.856,245.713Z" transform="translate(-339 -158.757)"/>
    <path class="cls-1" d="M440.117,240.632l.906.655c-.031.107-.073.228-.127.362s-.121.284-.2.449c-.106.127-.228.29-.364.489s-.293.427-.469.685a5.978,5.978,0,0,1-.295.538.829.829,0,0,1-.189.236,2.166,2.166,0,0,0-.391.386q-.264.308-.67.849c-.147.188-.3.385-.475.59s-.349.407-.543.605l-.669.242-.263.387c-.121.075-.244.149-.371.222s-.251.139-.373.2a1.277,1.277,0,0,1-.463.18.244.244,0,0,1-.257-.105l-.167-.4-.1-.032a.893.893,0,0,1-.488.183c-.109-.012-.229-.124-.357-.334-.06-.1-.152-.257-.281-.486s-.293-.528-.494-.9a.859.859,0,0,1-.061-.239.832.832,0,0,0-.074-.258.592.592,0,0,1-.226-.217q-.211-.385-.485-.968t-.639-1.388a10.286,10.286,0,0,0-.434-1.131l-.568-.836q-.627-1.8-1.244-3.641a1.968,1.968,0,0,1-.121-.677,3.79,3.79,0,0,1,.071-.73.725.725,0,0,0,.06-.182c0-.077-.008-.174-.009-.292s0-.251,0-.4c.022-.048.062-.125.115-.229s.128-.246.22-.426c.031-.09.068-.2.107-.317s.084-.263.133-.425a7.963,7.963,0,0,0,.389-.879,1.79,1.79,0,0,1,.594-.782q.212-.145.424-.3c.141-.1.273-.2.4-.292a3.058,3.058,0,0,1,.3-.254c.057-.052.1-.1.145-.142a.573.573,0,0,1,.116-.1,1.384,1.384,0,0,1,.167-.083q.108-.048.3-.125c.094-.048.172-.093.234-.132a1.9,1.9,0,0,0,.177-.122,1.335,1.335,0,0,1,.771-.013.942.942,0,0,1,.506.414,3.246,3.246,0,0,1,.475,1.06.5.5,0,0,1-.209.571.94.94,0,0,1-.609.08,3.347,3.347,0,0,0-1.576.676q-.429.4-.848.787a.4.4,0,0,1-.039.183.862.862,0,0,1-.074.125l-.411.083a1.02,1.02,0,0,0-.149.528,4.982,4.982,0,0,0,.034.955.951.951,0,0,0,.076.283,2.36,2.36,0,0,0,.183.349q.252.795.476,1.541.262.789.38,1.2t.146.5q.031.113.064.211a.935.935,0,0,0,.087.184.383.383,0,0,0,.166.161.191.191,0,0,0,.185-.021,1.345,1.345,0,0,0,.222-.572,1.622,1.622,0,0,1,.273-.657q.166-.181.33-.375c.109-.129.217-.271.325-.425a3.948,3.948,0,0,1,.406-.357q.338-.275.956-.748l.315-.089.447-.408.345-.041a1.342,1.342,0,0,1,.321.125,2.855,2.855,0,0,1,.333.209,2.754,2.754,0,0,1,.413.946.473.473,0,0,1-.19.526l-.654.114q-.609.468-1.207.922t-1.221.919a3.2,3.2,0,0,0-.908,1.286,1.573,1.573,0,0,0,.111,1.251,3.607,3.607,0,0,1,.17.423c.066.2.154.436.261.723l.243.246q.167.464.344.857a6.168,6.168,0,0,0,.354.679.3.3,0,0,0,.115.121.056.056,0,0,0,.081-.018q.435-.321.7-.512a3.764,3.764,0,0,1,.386-.251l.53-.274.572-.419a3.434,3.434,0,0,0,.322-.41,1.787,1.787,0,0,1,.5-.491,3.337,3.337,0,0,0,.523-.4,4.315,4.315,0,0,0,.445-.486q.2-.255.391-.512c.127-.171.258-.341.391-.512a2.123,2.123,0,0,0,.188-.261C439.947,240.944,440.028,240.8,440.117,240.632Z" transform="translate(-339 -158.757)"/>
    <path class="cls-1" d="M447.116,237.007l.874.711a1.753,1.753,0,0,1-.516.507q-.434.324-1.16.776a13.041,13.041,0,0,1-1.014,2.33,7.978,7.978,0,0,1-1.3,1.732q-.168.163-.392.367a1.218,1.218,0,0,1-.383.116,3.485,3.485,0,0,1-.514.033,2.077,2.077,0,0,1-.52-.1.478.478,0,0,1-.279-.222.91.91,0,0,1-.01-.728,3.3,3.3,0,0,1,.574-.968q.85-1.1,1.662-2.188a.375.375,0,0,1,.264-.053.239.239,0,0,1,.154.128c.093.179.043.4-.148.652s-.275.41-.248.463c.081.042.139.055.172.038a1.68,1.68,0,0,0,.372-.686q.242-.619.181-.713l-.168-.2v-.051a2.688,2.688,0,0,0,.172-.607.631.631,0,0,0-.024-.354,1.622,1.622,0,0,0-.6-.54,8.786,8.786,0,0,0-1.27-.62,10.9,10.9,0,0,0-1.184-.431q-.567-.168-1.061-.267a2.629,2.629,0,0,1-.361-.11,1.78,1.78,0,0,1-.27-.132c-.143-.1-.258-.174-.346-.239a.625.625,0,0,0-.2-.109c-.054-.023-.124-.048-.21-.075s-.187-.057-.3-.089a1.652,1.652,0,0,1-.639-.441,3.894,3.894,0,0,1-.615-.909,2.9,2.9,0,0,1-.275-.787,2.4,2.4,0,0,1-.023-.791,1.414,1.414,0,0,0-.012-.17c-.008-.063-.016-.136-.023-.215a4.447,4.447,0,0,1,.254-1.416,11.8,11.8,0,0,1,.84-1.9c.06-.081.129-.184.207-.309a4.463,4.463,0,0,0,.245-.456,1.921,1.921,0,0,1,.171-.316,2.59,2.59,0,0,1,.268-.328c.141-.166.3-.351.484-.554a8.186,8.186,0,0,1,.632-.807,1.829,1.829,0,0,1,.437-.377.678.678,0,0,1,.6-.057,1,1,0,0,1,.464.494,3.379,3.379,0,0,1,.289.717.735.735,0,0,1,.008.444q-.691,1.547-1.164,2.393a2.687,2.687,0,0,1-.762.995.339.339,0,0,1-.262.034.368.368,0,0,1-.2-.2q-.139-.27.142-.826t.184-.721l-.121-.013a.312.312,0,0,0-.1.089.941.941,0,0,0-.094.15,9.486,9.486,0,0,0-.663,1.955,1.907,1.907,0,0,0,.064,1.212,2.307,2.307,0,0,0,.46.609,3.946,3.946,0,0,0,.7.525q.289.168.791.394c.336.15.753.326,1.251.522q1.036.413,1.6.642a4.586,4.586,0,0,0,.611.228,4.437,4.437,0,0,1,.607.343,2.138,2.138,0,0,1,.447.4,2.91,2.91,0,0,1,.312.433c.11.179.233.4.372.668.08.156.15.234.209.233a.6.6,0,0,0,.246-.084.167.167,0,0,0,.082-.074A.568.568,0,0,0,447.116,237.007Z" transform="translate(-339 -158.757)"/>
    <path class="cls-1" d="M448.819,237.214a9.3,9.3,0,0,1-.39-.989,4.917,4.917,0,0,1-.172-.668c-.065-.109-.137-.222-.212-.335-.065-.143-.155-.39-.272-.739s-.262-.81-.436-1.38q-.258-.82-.383-1.275a4.974,4.974,0,0,1-.136-.561c-.065-.11-.138-.229-.217-.358a4.224,4.224,0,0,0-.29-.412l-.3-.062-.106-.1c-.072-.2-.147-.4-.225-.595a5.484,5.484,0,0,1-.2-.619,3.275,3.275,0,0,1-.193-.689,5.284,5.284,0,0,1-.059-.552,1.068,1.068,0,0,0,0-.173,1.352,1.352,0,0,1,.01-.239c-.05-.273-.1-.547-.148-.82s-.091-.541-.128-.8a1.524,1.524,0,0,1,.188-.761,1.654,1.654,0,0,1,.572-.59,4.656,4.656,0,0,1,.387-.452,1.111,1.111,0,0,1,.294-.224.287.287,0,0,1,.275.012.587.587,0,0,1,.226.281c.023.054.082.256.174.6s.207.836.35,1.462q.1.3.205.727t.227,1.024q.117.674.295,1.462t.445,1.714c.076.261.148.521.215.778s.139.517.215.777c.084.3.168.58.249.842a6.016,6.016,0,0,0,.256.691,1.578,1.578,0,0,0,.112.208,1.582,1.582,0,0,1,.1.188,1.1,1.1,0,0,1,.129.3c.037.131.085.286.141.466s.09.335.129.478a2.3,2.3,0,0,0,.105.316q.234.521.406.833a2.839,2.839,0,0,0,.247.4c.131.163.269.339.411.529.052.116-.023.357-.229.724a1.558,1.558,0,0,1-.512.643.352.352,0,0,1-.259.012,1.179,1.179,0,0,1-.316-.171,3.093,3.093,0,0,1-.247-.246.93.93,0,0,1-.151-.228.825.825,0,0,1-.047-.213.88.88,0,0,0-.046-.213,3.037,3.037,0,0,0-.415-.429c.017.075,0,.064-.04-.031S448.939,237.48,448.819,237.214Z" transform="translate(-339 -158.757)"/>
    <path class="cls-1" d="M455.65,220.487c.18-.01.365-.016.555-.019s.379,0,.564,0a1.2,1.2,0,0,1,.343.136c.162.084.378.208.646.372a3.5,3.5,0,0,1,.544.357q.1.1.446.511a4.485,4.485,0,0,1,.539.538,2.3,2.3,0,0,1,.435.612,1.565,1.565,0,0,1-.229,1.131q-.369.753-.7.873a.388.388,0,0,1-.359-.018.666.666,0,0,1-.242-.348c-.166-.258-.3-.481-.416-.673a4.647,4.647,0,0,0-1.42-1.439,1.61,1.61,0,0,0-1.41-.139,2.219,2.219,0,0,0-.656.379,2.115,2.115,0,0,0-.494.595,3.737,3.737,0,0,0-.246.534q-.141.363-.326.9a2.006,2.006,0,0,1-.055.211c-.025.082-.055.188-.086.32s-.049.315-.09.518-.1.437-.167.7q.006.309,0,.576a2.441,2.441,0,0,1-.073.517.579.579,0,0,0,0,.187c.008.089.023.2.045.348q.015.27.03.587c.011.212.021.443.034.694q.255,1.211.427,1.907c.115.464.2.764.247.9a5.642,5.642,0,0,0,.412.877,5.4,5.4,0,0,0,.582.815c.164.187.314.343.447.469a1.434,1.434,0,0,0,.347.256,1.109,1.109,0,0,0,.489.094,1.7,1.7,0,0,0,.568-.113,2.316,2.316,0,0,0,.746-.443,2.8,2.8,0,0,0,.556-.671c.042-.08.122-.254.237-.524s.272-.637.469-1.1a3.466,3.466,0,0,0,.17-.332q.1-.209.207-.465c.066-.232.123-.46.172-.686s.1-.444.159-.657a1.574,1.574,0,0,1,.335-.6,1.348,1.348,0,0,1,.533-.353,1,1,0,0,1,.713-.046.767.767,0,0,1,.42.491,1.283,1.283,0,0,1,.058.38,2.947,2.947,0,0,0,.034.388c.033.131.069.3.109.492s.09.428.148.694a5.48,5.48,0,0,1,.209.879,2.864,2.864,0,0,1,.021.723,4.757,4.757,0,0,0,.133,1.255,4.677,4.677,0,0,1,.126,1.271,1.278,1.278,0,0,0,.006.375q.031.246.095.617a2.452,2.452,0,0,1,.039.417.652.652,0,0,1-.07.313,1.549,1.549,0,0,1-.182.223,3.116,3.116,0,0,1-.353.31.8.8,0,0,1-.015.418.384.384,0,0,1-.24.227.269.269,0,0,1-.273-.043.869.869,0,0,1-.23-.381,2.481,2.481,0,0,1-.085-.346,6.245,6.245,0,0,1-.08-.624,3.878,3.878,0,0,0-.093-.48c-.049-.2-.121-.435-.215-.711-.037-.146-.082-.38-.133-.7s-.1-.728-.154-1.212l-.389-.635a2.768,2.768,0,0,0-.031-.311.159.159,0,0,0-.077-.1.162.162,0,0,0-.124,0,5.345,5.345,0,0,0-.434.71q-.366.662-.625,1.093c-.174.287-.311.5-.41.641a5.553,5.553,0,0,1-.686.767,3.865,3.865,0,0,1-.8.568l-.5.076c-.132.072-.245.137-.335.194a1.3,1.3,0,0,1-.537.067,3.325,3.325,0,0,1-.693-.128,3.075,3.075,0,0,1-.676-.325,3.28,3.28,0,0,1-.654-.561,3.153,3.153,0,0,1-.346-.448c-.155-.229-.359-.521-.608-.876a2.074,2.074,0,0,0-.087-.591,3.359,3.359,0,0,0-.254-.625l-.371-1.659a12.128,12.128,0,0,1-.3-3.887,9.955,9.955,0,0,1,.944-3.4c.169-.366.314-.662.438-.892a3.4,3.4,0,0,0,.223-.465q.167-.264.379-.547t.475-.581c.09-.1.193-.217.313-.336s.265-.251.436-.394l.938-.477.357-.037Z" transform="translate(-339 -158.757)"/>
    <path class="cls-1" d="M462.41,221.488l-.355-.662c.006-.156.012-.314.017-.474s.007-.317.007-.471a.481.481,0,0,1,.162-.292.96.96,0,0,1,.4-.189,1.66,1.66,0,0,0,.289-.121,1.562,1.562,0,0,1,.277-.118.468.468,0,0,1,.3.085.881.881,0,0,0,.273.114,1.256,1.256,0,0,0,.144-.234c.053-.106.115-.247.188-.419a2.124,2.124,0,0,1,.2-.353.787.787,0,0,1,.244-.226c.132.028.247.048.344.062a.264.264,0,0,1,.131.071.371.371,0,0,1,.066.146,1.065,1.065,0,0,1,.006.248c-.006.128-.02.3-.039.525-.023.238-.039.436-.045.592a3.377,3.377,0,0,0,0,.36,3.8,3.8,0,0,0-.14.517.938.938,0,0,0,0,.4,2.56,2.56,0,0,0,.3.614q.242.4.656.973.571.781,1.175,1.634.595.959,1.2,1.841t1.23,1.671A15.476,15.476,0,0,0,470.463,229q.378.39.509.356a.171.171,0,0,0,.124-.166,1.192,1.192,0,0,0-.053-.41,1.835,1.835,0,0,1-.047-.29,2.736,2.736,0,0,1-.006-.4c.015-.212.02-.449.014-.71-.025-.4-.043-.743-.055-1.041s-.021-.555-.031-.769a8,8,0,0,0-.115-.852q-.108-.645-.332-1.736a1.809,1.809,0,0,1-.041-.314c-.008-.137-.021-.292-.044-.464s-.028-.323-.045-.447a2.827,2.827,0,0,0-.061-.326q-.066-.25-.247-.731t-.246-.731q-.013-.728-.04-1.416-.026-.6-.015-1c.008-.269.021-.475.039-.619a2.766,2.766,0,0,1,.248-.789,2.424,2.424,0,0,1,.434-.616l.086-.022a.2.2,0,0,1,.158.006.214.214,0,0,1,.074.131,3.184,3.184,0,0,1-.008.374c.057.125.113.257.172.4a4.333,4.333,0,0,1,.042.476c.006.084.022.208.05.375s.071.366.131.6q.035.13.112.568t.176,1.178q.2,1.039.366,2.074t.332,2.071q.227,1.241.323,2.289a16.256,16.256,0,0,1,.073,1.9,8.588,8.588,0,0,1,.072,1.118q.006.625-.046,1.369l-.2.63a4.01,4.01,0,0,1-.613.454,5.445,5.445,0,0,1-.667.421c-.108.028-.31-.073-.6-.3a9.333,9.333,0,0,1-1.109-1.112q-.628-.684-1.012-1.136a4.619,4.619,0,0,1-.516-.7c-.031-.062-.074-.139-.129-.233s-.118-.2-.188-.323q-.341-.423-.854-1.044t-1.2-1.478a3.075,3.075,0,0,0-.311-.413,5.377,5.377,0,0,0-.4-.4l-.068.052a5.364,5.364,0,0,0-.012.583q.007.346.026.828a4.626,4.626,0,0,1-.094.581q0,.673-.018,1.466c-.011.529-.024,1.1-.038,1.7q.007.3.02.621c.01.215.013.438.011.67l-.1.41c.026.225.05.448.067.667-.008.18-.02.4-.036.652s-.036.56-.061.914a.651.651,0,0,1-.062.416.516.516,0,0,1-.307.225.313.313,0,0,1-.064.115.686.686,0,0,1-.192.148c-.069.033-.134.009-.192-.073a1.128,1.128,0,0,1-.157-.382,3.308,3.308,0,0,1-.069-.493q-.029-.341-.049-.869c-.018-.4-.03-.709-.038-.935s-.013-.37-.013-.432q-.023-.272-.078-.71c-.037-.292-.08-.629-.133-1.01-.01-.1-.016-.222-.02-.372s-.006-.325,0-.527q0-.231-.087-1.236t-.266-2.791Q462.588,223.262,462.41,221.488Z" transform="translate(-339 -158.757)"/>
    <path class="cls-1" d="M487.377,213.428a.41.41,0,0,1,.373.116.784.784,0,0,1,.166.444q.064.569.071,1.065a4.226,4.226,0,0,1-.072.891q-.111.5-.209.979t-.2.979a1.911,1.911,0,0,0-.189.315c0,.158,0,.313,0,.464a.306.306,0,0,1-.065.177c-.042.058-.1.125-.163.2q-.021.115-.059.272t-.094.367q-.223.6-.619,1.444t-.967,1.949c.006.12.016.232.027.336l-.471,1.411q-.239.762-.4,1.454a9.147,9.147,0,0,0-.217,1.308q-.026.344-.042.565a1.962,1.962,0,0,0,0,.312.784.784,0,0,0,.174.325.925.925,0,0,1,.166.269q.029.247-.579.712a2.349,2.349,0,0,1-.765.473c-.115-.01-.234-.017-.359-.021s-.24-.012-.348-.022a.938.938,0,0,1-.373-.109.29.29,0,0,1-.15-.226,2.213,2.213,0,0,1,.027-.444,6.286,6.286,0,0,1,.146-.927,3.9,3.9,0,0,1,.287-.8l.029-.048a.325.325,0,0,1-.064-.106.956.956,0,0,0-.066-.14c.021-.138.055-.307.1-.509s.107-.434.189-.7a2.736,2.736,0,0,0,.17-.5,5.66,5.66,0,0,0,.122-.7,3.7,3.7,0,0,1-.726-.606,2.216,2.216,0,0,1-.443-.707c-.074-.119-.172-.271-.291-.458s-.25-.411-.394-.673l-1.155-2.75q-.07-.33-.187-.787c-.077-.3-.182-.647-.317-1.032l.07-.268-.217-.224c-.008-.059-.022-.143-.047-.249s-.055-.236-.095-.39a3.457,3.457,0,0,1-.084-.381c-.017-.107-.028-.2-.037-.272a1.335,1.335,0,0,1,.05-.65.542.542,0,0,1,.336-.321c.051-.006.109-.015.172-.025s.131-.021.205-.03a3.171,3.171,0,0,0,.773-.451.752.752,0,0,1,.521.1.819.819,0,0,1,.31.433,2.787,2.787,0,0,1,.1.436c.029.188.06.413.089.673q.025.212.031.618c.006.271.016.47.029.6a.871.871,0,0,0,.035.149c.018.055.039.129.065.224a8.989,8.989,0,0,0,.188.888q.135.521.325,1.189c.074.263.182.588.316.976s.295.838.475,1.353a2.752,2.752,0,0,1,.215.24,3.08,3.08,0,0,1,.225.319l.084.036q.067-.008.27-.545t.543-1.606c.034-.094.072-.217.115-.369s.094-.33.153-.532a1.365,1.365,0,0,0,.1-.193q.054-.119.126-.286c.021-.131.06-.3.11-.5s.117-.449.2-.729c.076-.183.162-.4.256-.668s.2-.575.3-.934a6.043,6.043,0,0,1,.334-.779q.328-.71.955-2.038a.937.937,0,0,1,.163-.251A.311.311,0,0,1,487.377,213.428Z" transform="translate(-339 -158.757)"/>
    <path class="cls-1" d="M488.543,221.793a.951.951,0,0,1,.076-.351,2.876,2.876,0,0,1,.239-.467q.227-.344.339-.537a1.046,1.046,0,0,0,.123-.25c.035-.083.083-.193.143-.33s.129-.292.207-.466a1.778,1.778,0,0,0,.244-.54q.135-.414.307-1.093c.057-.121.117-.267.179-.437s.14-.373.231-.607a3.821,3.821,0,0,1,.152-.611c.075-.234.174-.5.293-.784q.224-.41.473-.81a1.525,1.525,0,0,1,.725-.6,1.291,1.291,0,0,1,.3.239.382.382,0,0,1,.107.233,1.694,1.694,0,0,1-.232.754,1.775,1.775,0,0,0-.236.641.222.222,0,0,0,.106.166,1.827,1.827,0,0,0,.318-.279c.153-.153.353-.361.6-.623a6.5,6.5,0,0,1,.555-.493,1.234,1.234,0,0,1,.471-.243,2.263,2.263,0,0,1,.368-.111,3.715,3.715,0,0,0,.5-.16,1.294,1.294,0,0,0,.231-.164.892.892,0,0,1,.243-.141l.169.029a1.408,1.408,0,0,0,.567.192,3.567,3.567,0,0,0,.587.091,1.366,1.366,0,0,1,.24.173,3.262,3.262,0,0,0,.355.26,3,3,0,0,1,.858.769,5.984,5.984,0,0,1,.736,1.278,8.964,8.964,0,0,1,.479,1.334,5.324,5.324,0,0,1,.185,1.231,10.127,10.127,0,0,1-.383,3.269,5.417,5.417,0,0,1-1.365,2.306l-.213.226c-.083.088-.187.194-.311.317l0,.124a.567.567,0,0,1-.122.245,2.961,2.961,0,0,1-.29.306q-.406.393-.821.792t-.855.782a6.532,6.532,0,0,1-1.045.792,3.863,3.863,0,0,1-.967.42,1.371,1.371,0,0,1-.492.289,2.4,2.4,0,0,1-.721.115,4.99,4.99,0,0,1-1.024-.057,1.2,1.2,0,0,1-.568-.226,2.212,2.212,0,0,0-.241-.2c-.092-.065-.2-.148-.321-.25a1.348,1.348,0,0,1-.374-.523,5.539,5.539,0,0,1-.329-1c-.068-.305-.124-.6-.165-.889a7.083,7.083,0,0,1-.072-.8,2,2,0,0,1,.047-.373,1.462,1.462,0,0,0,.033-.394,3.73,3.73,0,0,0-.034-.448,2.677,2.677,0,0,1,.106-.643,2.731,2.731,0,0,0,.1-.7.377.377,0,0,0-.072-.167,1.651,1.651,0,0,0-.249.378.473.473,0,0,1-.151.173.329.329,0,0,1-.167.061.231.231,0,0,1-.2-.1.517.517,0,0,1-.081-.3,1.976,1.976,0,0,1,.051-.406A1.991,1.991,0,0,0,488.543,221.793Zm6.588-5.672a2.4,2.4,0,0,0-.549.082,3.627,3.627,0,0,0-.566.207l-1.076.512a1.264,1.264,0,0,0-.248.187,2.58,2.58,0,0,0-.3.345l-.5.654a2.762,2.762,0,0,0-.408,1.078,17.092,17.092,0,0,0-.283,2.03q-.085.958-.108,1.784c-.015.551-.017,1.058,0,1.522a4.093,4.093,0,0,0,.494,2.116,1.456,1.456,0,0,0,1.344.666,2.4,2.4,0,0,0,.926-.244,5.614,5.614,0,0,0,1.1-.7,8.606,8.606,0,0,0,.89-.794,4.6,4.6,0,0,0,.629-.809,5.333,5.333,0,0,0,.336-.672q.229-.512.631-1.4a7.633,7.633,0,0,0,.4-1.309,5.845,5.845,0,0,0,.121-1.357q-.076-.334-.164-.658l.064-.485c-.076-.088-.143-.168-.2-.242-.023-.059-.044-.107-.06-.145a4.288,4.288,0,0,0-.992-1.8A1.971,1.971,0,0,0,495.131,216.122Z" transform="translate(-339 -158.757)"/>
    <path class="cls-1" d="M501.916,223.737a3.814,3.814,0,0,0-.057-.747,3.868,3.868,0,0,1-.056-.771c.007-.1.028-.247.062-.451s.055-.354.062-.452q.031-.415.042-1.252t.042-1.253q.051-.694.212-1.786t.414-2.56a2.054,2.054,0,0,1,.3-.8.525.525,0,0,1,.484-.246c.068,0,.13.054.186.148a2.09,2.09,0,0,1,.178.418c.16.177.32.339.482.486a1.118,1.118,0,0,1,.27.465,1.732,1.732,0,0,1,.055.629,4.424,4.424,0,0,1-.208.914,4.351,4.351,0,0,0-.207.891,9.749,9.749,0,0,1-.112.977,2.578,2.578,0,0,1-.162.6l-.15.35q.021.339.034.757c-.054.424-.1.867-.144,1.33a9.244,9.244,0,0,0,.008,1.413,14.318,14.318,0,0,0,.2,1.473,4.31,4.31,0,0,0,.545,1.533,1.1,1.1,0,0,0,.831.563.9.9,0,0,0,.462-.084,1.366,1.366,0,0,0,.425-.334c.106-.127.211-.258.312-.394s.2-.267.3-.394a4.312,4.312,0,0,0,.348-.431c.125-.174.264-.383.418-.627q.24-.658.525-1.324t.572-1.342c.049-.146.111-.335.189-.566s.156-.5.238-.8a10.681,10.681,0,0,0,.536-1.525q.281-.982.645-2.385c.071-.145.157-.33.261-.555s.222-.486.355-.785c.039-.11.107-.281.207-.513s.238-.527.415-.882a.732.732,0,0,1,.354-.384,1.129,1.129,0,0,1,.594-.1c.142.01.237.109.287.3a2.687,2.687,0,0,1,.033.842,16,16,0,0,1-.455,2.585,34.566,34.566,0,0,1-1.086,3.461c-.031.117-.077.266-.139.445s-.136.382-.221.608c-.018.142-.047.3-.086.484s-.092.389-.153.625a11.875,11.875,0,0,0-.4,1.322q-.171.708-.3,1.476a1.974,1.974,0,0,1-.064.333c-.036.148-.085.324-.146.53a4.765,4.765,0,0,0-.131.553q-.041.245-.056.458c.006.2.015.4.023.576a2.289,2.289,0,0,1,.2.279.336.336,0,0,1,.061.179,1.827,1.827,0,0,1-.262.419,4.288,4.288,0,0,1-.459.473,2.354,2.354,0,0,1-.56.42.919.919,0,0,1-.481.122.513.513,0,0,1-.373-.28.814.814,0,0,1-.156-.491l.008-.089a1.763,1.763,0,0,0,.1-.251.284.284,0,0,0-.019-.12.758.758,0,0,1-.039-.166l.08-.163q.053-.108.108-.25c-.013-.039-.026-.084-.04-.139s-.039-.119-.07-.2c.018-.043.037-.1.057-.159s.049-.141.085-.236a1.4,1.4,0,0,0,0-.226c.01-.052.027-.128.051-.227s.049-.223.083-.372c.039-.124.071-.229.1-.313a1.033,1.033,0,0,0,.043-.194.369.369,0,0,0-.018-.147.169.169,0,0,0-.066-.1.534.534,0,0,0-.2.155,3.038,3.038,0,0,0-.293.383c-.135.193-.249.348-.344.464s-.16.2-.193.239l-.056.154c-.222.261-.419.478-.589.649a4.575,4.575,0,0,1-.387.359,2.525,2.525,0,0,1-.535.31,3.465,3.465,0,0,1-.732.217,2.657,2.657,0,0,0-.4.082,2.287,2.287,0,0,1-.742-.167,1.086,1.086,0,0,1-.47-.351,5.393,5.393,0,0,1-.887-1.856A6.785,6.785,0,0,1,501.916,223.737Z" transform="translate(-339 -158.757)"/>
    <path class="cls-1" d="M516.2,224.17a1.072,1.072,0,0,0,.215.646,8.868,8.868,0,0,0,.791,1.075q.352.414.732.814t.758.807c.107.125.248.287.418.487l.6.7q.249.27.527.546t.605.558q.212.23.473.5t.606.594a.876.876,0,0,1,.261.54,3.186,3.186,0,0,1-.01.927l-.148.271-.119.036a.7.7,0,0,1-.277-.144c-.111-.083-.249-.2-.414-.349-.033-.028-.187-.139-.463-.33s-.67-.464-1.187-.817a5.822,5.822,0,0,1-.776-.594,6.422,6.422,0,0,1-.619-.646,5.1,5.1,0,0,0-.419-.448q-.261-.248-.619-.55c-.246-.2-.458-.389-.633-.563s-.314-.319-.416-.436q-.516-.588-.848-.907a1.26,1.26,0,0,0-.478-.343.63.63,0,0,0-.177.3c-.146.333-.316.754-.506,1.265s-.4,1.108-.64,1.79a.5.5,0,0,1-.114.271.231.231,0,0,1-.215.061.925.925,0,0,1-.618-.322.846.846,0,0,1-.114-.669,10.616,10.616,0,0,1,.273-1.173,11.04,11.04,0,0,1,.461-1.267c.07-.193.129-.368.174-.523a3.771,3.771,0,0,0,.1-.433,1.12,1.12,0,0,0-.287-.95c-.252-.293-.367-.492-.35-.6a1.151,1.151,0,0,1,.145-.414.673.673,0,0,1,.266-.257q.4-.171.75-.328a.233.233,0,0,0,.131-.131,1.185,1.185,0,0,0,.078-.289c.012-.074.025-.153.04-.237s.028-.165.04-.238q.2-.979.4-2.038c.009-.051.022-.132.042-.243s.035-.256.051-.435a2.1,2.1,0,0,1,.053-.373c.025-.113.047-.218.063-.313-.019-.155-.036-.289-.051-.4a1.044,1.044,0,0,1,0-.312c.016-.089.047-.226.094-.411s.077-.319.09-.4c.018-.1.033-.249.047-.436a4.2,4.2,0,0,1,.043-.425,1.711,1.711,0,0,1,.313-.733,2.672,2.672,0,0,1,.682-.624,2.905,2.905,0,0,1,.827-.343,2.016,2.016,0,0,1,.808-.028c.125.021.311.063.555.123s.436.1.576.126a3.575,3.575,0,0,1,.744.377,4.433,4.433,0,0,1,.444.138,2.236,2.236,0,0,1,.307.137c.17.121.3.213.4.278a1.09,1.09,0,0,0,.207.121c.118.065.221.121.309.166a.775.775,0,0,1,.207.149c.088.061.193.132.313.212l.4.273a4.7,4.7,0,0,1,.669.592,6.708,6.708,0,0,1,.562.688,3.342,3.342,0,0,1,.4.871,1.85,1.85,0,0,1,.049.788c-.014.074-.036.178-.07.313s-.081.285-.14.449a1.371,1.371,0,0,1-.45.635,5.391,5.391,0,0,1-1,.667,9.8,9.8,0,0,1-1.04.49,3.662,3.662,0,0,1-.86.235,1.239,1.239,0,0,0-.254.15,2.413,2.413,0,0,1-.517.231q-.39.138-1.048.334-1.2.354-1.694.447C516.394,223.94,516.218,224.038,516.2,224.17Zm-.256-5.531c.156-.079.307-.158.449-.236a.772.772,0,0,1,.514-.066q.132.022.275.348a.953.953,0,0,1,.12.47,2.524,2.524,0,0,1-.116.345c-.068.178-.169.418-.3.722q-.437,1.03-.516,1.3t-.288.822a3.614,3.614,0,0,0-.152.361.218.218,0,0,0,.015.15.13.13,0,0,0,.1.062q2.391-.732,2.476-.763a1.6,1.6,0,0,0,.2-.029c.071-.014.139-.031.2-.051l.2-.182q.712-.3,1.478-.648a2.834,2.834,0,0,0,.753-.544,1.193,1.193,0,0,0,.32-.606,1.116,1.116,0,0,0-.34-.889,5.219,5.219,0,0,0-1.3-1.007,10.11,10.11,0,0,0-1.394-.719,5.562,5.562,0,0,0-1.182-.354,1.9,1.9,0,0,0-1.109.067.846.846,0,0,0-.485.674,2.245,2.245,0,0,0-.042.579C515.828,218.577,515.869,218.643,515.939,218.639Z" transform="translate(-339 -158.757)"/>
    <path class="cls-1" d="M528.355,234.847l-.107-.034-.139-.044a.677.677,0,0,1-.388-.286.844.844,0,0,1-.093-.547,2.366,2.366,0,0,1,.08-.37c.047-.178.117-.413.209-.706.037-.122.086-.314.145-.579s.107-.457.146-.579a1.49,1.49,0,0,1,.1-.217,3.735,3.735,0,0,0,.174-.428c.068-.167.146-.37.238-.608q.085-.349.136-.7c.169-.363.346-.732.534-1.1a1.674,1.674,0,0,0,.08-.316,2.935,2.935,0,0,1,.068-.309,1.018,1.018,0,0,1,.105-.208,1.013,1.013,0,0,0,.109-.219.363.363,0,0,0,.017-.183.128.128,0,0,0-.093-.1l-.139.01c-.052,0-.105.007-.162.013a1.148,1.148,0,0,0-.175-.007c-.071,0-.157,0-.259,0l-.076-.1v-.117c.1-.094.2-.184.3-.27s.2-.174.288-.263a1.149,1.149,0,0,1,.313-.173c.115-.042.232-.083.355-.123.092-.019.194-.112.306-.281a4.587,4.587,0,0,0,.378-.776c.156-.4.291-.719.408-.966a2.8,2.8,0,0,1,.271-.491l.211-.3a1.069,1.069,0,0,0,.031-.213,1.268,1.268,0,0,1,.027-.2q.23-.469.449-.907a4.172,4.172,0,0,1,.951-1.16,9.165,9.165,0,0,1,1.528-1.052,4.414,4.414,0,0,1,2.362-.366c.093.053.176.1.248.148l.394-.018a.374.374,0,0,1,.124.074c.047.038.106.092.179.162a3.905,3.905,0,0,1,.462.027,1.778,1.778,0,0,1,.3.058,2.263,2.263,0,0,1,.937.487.6.6,0,0,1,.157.643,4.752,4.752,0,0,1-.171.453,5.465,5.465,0,0,1-.266.529,2.682,2.682,0,0,1-.356.542c-.106.112-.2.163-.284.152q-.237-.216-.492-.419c-.17-.135-.344-.278-.525-.429l-.433.029c-.116-.052-.243-.111-.38-.177a2.667,2.667,0,0,0-.424-.091q-.243-.034-.51-.047c-.482-.034-.79.033-.92.2a7.35,7.35,0,0,1-.6.652,3.777,3.777,0,0,0-.545.783q-.426.7-1.176,2.009a1.219,1.219,0,0,1-.15.2.765.765,0,0,0-.153.247.43.43,0,0,0-.019.247.2.2,0,0,0,.11.135,4.583,4.583,0,0,1,.486-.03c.2,0,.441,0,.721.008q.357.064.727.1c.248.026.507.042.779.05l.268.083.375.117.78.1a2.029,2.029,0,0,1,.878.468.575.575,0,0,1,.154.6c-.013.043-.053.15-.118.322s-.155.4-.268.687c-.144.135-.293.273-.446.413a3.762,3.762,0,0,1-.469-.234q-.371-.205-1.05-.593a5.006,5.006,0,0,1-.589-.072,5.26,5.26,0,0,1-.634-.157,3.969,3.969,0,0,0-.6-.119,5.766,5.766,0,0,1-.607-.107,1.043,1.043,0,0,1-.332.067.936.936,0,0,1-.3-.041,3.458,3.458,0,0,1-.323-.136q-.139-.042-.347.168a3.147,3.147,0,0,0-.469.708l-.25.427-.029.355-.6,1.212a1.4,1.4,0,0,0-.04.182,1.287,1.287,0,0,1-.049.214q-.407.814-.723,1.615c-.209.535-.4,1.073-.569,1.617a1.063,1.063,0,0,1-.189.341A1.508,1.508,0,0,1,528.355,234.847Z" transform="translate(-339 -158.757)"/>
    <path class="cls-1" d="M539.154,231.179a3.829,3.829,0,0,0,.182-.728,3.885,3.885,0,0,1,.188-.749c.037-.09.1-.227.2-.409s.163-.32.2-.41q.16-.384.434-1.176t.433-1.176q.268-.644.762-1.63t1.2-2.3a2.077,2.077,0,0,1,.536-.665.529.529,0,0,1,.539-.081.257.257,0,0,1,.13.2,2.224,2.224,0,0,1,.037.453,6.823,6.823,0,0,0,.3.613,1.142,1.142,0,0,1,.11.526,1.762,1.762,0,0,1-.146.614,4.359,4.359,0,0,1-.484.8,4.409,4.409,0,0,0-.477.781c-.148.359-.287.657-.413.893a2.6,2.6,0,0,1-.343.519l-.252.285q-.088.329-.205.729c-.186.385-.369.792-.555,1.217a9.289,9.289,0,0,0-.437,1.345,14.624,14.624,0,0,0-.277,1.459,4.315,4.315,0,0,0,.036,1.626,1.1,1.1,0,0,0,.613.8.9.9,0,0,0,.465.065,1.373,1.373,0,0,0,.508-.185q.212-.131.418-.276c.139-.1.274-.19.409-.281a4.368,4.368,0,0,0,.465-.3c.174-.126.372-.282.594-.465q.435-.549.915-1.091t.965-1.095q.138-.187.357-.479c.145-.195.3-.422.478-.683a10.728,10.728,0,0,0,.987-1.28q.574-.844,1.361-2.062c.111-.115.253-.263.422-.444s.363-.393.584-.634q.105-.138.357-.423c.168-.189.393-.425.671-.707a.727.727,0,0,1,.458-.253,1.13,1.13,0,0,1,.594.094c.131.055.19.179.18.373a2.762,2.762,0,0,1-.232.81,16.063,16.063,0,0,1-1.246,2.311,34.549,34.549,0,0,1-2.115,2.945q-.1.154-.273.379c-.115.151-.249.321-.4.509q-.092.193-.234.432c-.095.16-.208.341-.342.545a12.139,12.139,0,0,0-.791,1.131q-.385.619-.744,1.309a2.077,2.077,0,0,1-.165.3q-.123.193-.306.457a4.9,4.9,0,0,0-.3.484q-.116.22-.2.417c-.057.2-.109.38-.157.555a2.364,2.364,0,0,1,.1.328.336.336,0,0,1,0,.188,1.763,1.763,0,0,1-.381.316,4.144,4.144,0,0,1-.583.305,2.366,2.366,0,0,1-.664.223.921.921,0,0,1-.5-.036.518.518,0,0,1-.267-.384.808.808,0,0,1,.007-.515l.034-.083a1.856,1.856,0,0,0,.172-.208.307.307,0,0,0,.02-.12.831.831,0,0,1,.016-.169l.127-.13q.085-.086.182-.2c0-.04,0-.088,0-.144a1.774,1.774,0,0,0,0-.209q.047-.053.105-.133c.037-.053.089-.118.154-.2a1.437,1.437,0,0,0,.064-.216c.027-.045.066-.112.12-.2s.118-.2.2-.326c.076-.106.139-.2.189-.268a.983.983,0,0,0,.1-.171.381.381,0,0,0,.029-.146.168.168,0,0,0-.032-.111.521.521,0,0,0-.235.085,3,3,0,0,0-.4.271q-.283.212-.472.333t-.258.167l-.1.127q-.439.267-.763.431a4.448,4.448,0,0,1-.48.22,2.527,2.527,0,0,1-.605.126,3.452,3.452,0,0,1-.762-.025,2.689,2.689,0,0,0-.406-.047,2.3,2.3,0,0,1-.651-.392,1.077,1.077,0,0,1-.336-.479,5.374,5.374,0,0,1-.259-2.042A6.822,6.822,0,0,1,539.154,231.179Z" transform="translate(-339 -158.757)"/>
    <path class="cls-1" d="M555.08,226.616a6.335,6.335,0,0,1,.988.275,9.872,9.872,0,0,1,1.106.487,2.506,2.506,0,0,1,.308.2,2.416,2.416,0,0,0,.327.21,2.468,2.468,0,0,1,.26.208c.063.056.151.131.265.222l.321.063a.544.544,0,0,1,.157.174c.048.079.108.17.182.275a2.262,2.262,0,0,1,.291,0,.343.343,0,0,1,.188.239.742.742,0,0,1-.041.389l-.16.315a3.078,3.078,0,0,1-.186.315,1.381,1.381,0,0,0-.117.255,2.86,2.86,0,0,1-.112.27.244.244,0,0,1-.132.135.194.194,0,0,1-.154-.016,4.835,4.835,0,0,1-.719-.447,5.156,5.156,0,0,1-.641-.572q-.352-.1-.607-.194a1.127,1.127,0,0,0-.311-.083c-.074,0-.121.015-.141.055a.981.981,0,0,0,.033.206,1.05,1.05,0,0,0,.094.237.75.75,0,0,1,.051.3,3.628,3.628,0,0,1-.036.542,1.265,1.265,0,0,1-.052.238,1.4,1.4,0,0,1-.081.2,4.948,4.948,0,0,1-.308.505,5.051,5.051,0,0,1-.352.47q-.29.345-.469.574t-.275.345a1.857,1.857,0,0,0-.152.225c-.055.09-.116.193-.184.31a1.857,1.857,0,0,1-.271.334c-.124.127-.257.274-.4.445a1.921,1.921,0,0,1-.183.285q-.116.155-.278.35a2.458,2.458,0,0,1-.245.247,3.987,3.987,0,0,0-.321.322c-.038.107-.08.216-.128.326q-.182.259-.375.54-.278.4-.562.81t-.543.795c-.08.06-.17.128-.268.2a1.556,1.556,0,0,0-.084.228,1.736,1.736,0,0,1-.094.248,2.458,2.458,0,0,1-.206.3,2.006,2.006,0,0,0-.2.3q-.1.19-.311.585c-.143.264-.247.462-.315.6-.024.131-.05.256-.077.377a1.638,1.638,0,0,1-.18.192.384.384,0,0,1-.164.087,3.793,3.793,0,0,1-.422.012q-.152.049-.246.076a.21.21,0,0,1-.146,0,.658.658,0,0,1-.279-.218.2.2,0,0,1-.009-.206c.126-.214.257-.415.4-.605a1.02,1.02,0,0,1,.016-.143c.011-.062.02-.142.027-.239q.346-.806.684-1.668.331-.576.636-1.176c.095-.187.222-.418.384-.694s.359-.587.6-.938.437-.66.6-.93.29-.5.381-.675a2.64,2.64,0,0,1,.181-.293c.08-.115.175-.257.287-.427q.146-.215.271-.385a2.335,2.335,0,0,0,.2-.32,1.794,1.794,0,0,0,.077-.175c.023-.063.044-.12.062-.17.15-.133.27-.243.355-.329a.936.936,0,0,0,.154-.18c.018-.1.031-.2.043-.306a3.11,3.11,0,0,0,.387-.439c.17-.22.383-.513.636-.88l.147-.29c.058-.114.131-.25.219-.406l.031-.21a.947.947,0,0,0-.119-.124,2.147,2.147,0,0,0-.24-.185l-.176.024-.295-.075c-.1-.026-.208-.05-.321-.075q-1.191-.237-2.353-.478a.174.174,0,0,1-.1-.13.321.321,0,0,1,.039-.2.946.946,0,0,1,.156-.185c.085-.083.205-.187.359-.309q.2-.341.345-.555a2.213,2.213,0,0,1,.249-.315,1.008,1.008,0,0,1,.433-.246,1.262,1.262,0,0,1,.513-.029,5.242,5.242,0,0,1,.963.237A3.471,3.471,0,0,1,555.08,226.616Z" transform="translate(-339 -158.757)"/>
    <path class="cls-1" d="M555.67,238.826a3.872,3.872,0,0,0,.291-.692,3.77,3.77,0,0,1,.3-.71q.075-.125.26-.374c.123-.167.211-.291.262-.374q.215-.354.607-1.1t.609-1.1q.36-.6,1-1.494t1.536-2.089a2.065,2.065,0,0,1,.633-.575.526.526,0,0,1,.543,0,.258.258,0,0,1,.1.217,2.185,2.185,0,0,1-.033.453,6.6,6.6,0,0,0,.208.652,1.117,1.117,0,0,1,.027.537,1.733,1.733,0,0,1-.237.585,4.408,4.408,0,0,1-.6.719,4.371,4.371,0,0,0-.59.7c-.2.332-.385.6-.545.818a2.589,2.589,0,0,1-.419.462l-.292.242q-.138.311-.315.689-.362.529-.733,1.118a9.024,9.024,0,0,0-.637,1.262,14.4,14.4,0,0,0-.5,1.4,4.292,4.292,0,0,0-.213,1.612,1.1,1.1,0,0,0,.482.88.909.909,0,0,0,.451.136,1.39,1.39,0,0,0,.529-.1q.23-.1.456-.208c.15-.075.3-.146.446-.215a4.261,4.261,0,0,0,.506-.225c.191-.1.41-.221.658-.369q.513-.476,1.071-.938l1.122-.934.424-.418c.176-.17.367-.371.578-.6a10.822,10.822,0,0,0,1.172-1.114q.7-.745,1.659-1.829c.13-.1.29-.222.485-.375s.42-.332.675-.536c.085-.08.224-.2.419-.363s.451-.36.771-.6a.727.727,0,0,1,.491-.181,1.131,1.131,0,0,1,.572.184.336.336,0,0,1,.12.4,2.748,2.748,0,0,1-.354.764,15.808,15.808,0,0,1-1.585,2.092,34.578,34.578,0,0,1-2.541,2.587q-.123.135-.328.333c-.137.131-.295.279-.473.442-.081.118-.18.248-.3.391s-.259.3-.421.486a11.882,11.882,0,0,0-.955,1q-.476.552-.936,1.179a2.195,2.195,0,0,1-.209.267q-.151.171-.371.4a4.527,4.527,0,0,0-.369.433c-.1.132-.185.26-.259.381-.086.185-.167.359-.24.524a2.5,2.5,0,0,1,.05.339.344.344,0,0,1-.028.187,1.769,1.769,0,0,1-.425.254,4.132,4.132,0,0,1-.623.213,2.406,2.406,0,0,1-.689.119.93.93,0,0,1-.485-.111.524.524,0,0,1-.2-.421.806.806,0,0,1,.086-.506l.047-.077a1.783,1.783,0,0,0,.2-.18.289.289,0,0,0,.037-.115.935.935,0,0,1,.041-.165l.146-.109c.063-.049.135-.106.211-.174.006-.04.016-.087.026-.142a1.841,1.841,0,0,0,.027-.207q.054-.045.123-.116c.046-.046.107-.1.184-.171a1.345,1.345,0,0,0,.1-.2c.033-.041.084-.1.149-.179l.243-.292.229-.235a1.02,1.02,0,0,0,.126-.153.379.379,0,0,0,.053-.139.175.175,0,0,0-.017-.115.522.522,0,0,0-.245.048,2.982,2.982,0,0,0-.437.208q-.311.165-.518.256c-.138.061-.231.1-.28.125l-.12.111q-.475.2-.819.309a4.529,4.529,0,0,1-.51.144,2.542,2.542,0,0,1-.617.032,3.417,3.417,0,0,1-.749-.141,2.78,2.78,0,0,0-.394-.108,2.3,2.3,0,0,1-.584-.488,1.089,1.089,0,0,1-.259-.525,5.4,5.4,0,0,1,.056-2.057A6.818,6.818,0,0,1,555.67,238.826Z" transform="translate(-339 -158.757)"/>
    <path class="cls-1" d="M568.178,245.72a1.075,1.075,0,0,0-.1.672,9,9,0,0,0,.214,1.318q.123.528.279,1.059t.307,1.063c.038.161.088.369.148.625s.133.555.213.9c.066.237.141.478.221.726s.176.506.284.774c.056.2.119.422.19.662s.162.51.27.805a.883.883,0,0,1-.016.6,3.2,3.2,0,0,1-.432.82l-.256.174-.123-.022a.7.7,0,0,1-.182-.255c-.061-.125-.131-.292-.208-.5-.017-.041-.1-.208-.261-.5s-.385-.719-.684-1.27a5.915,5.915,0,0,1-.42-.882,6.409,6.409,0,0,1-.255-.858,4.9,4.9,0,0,0-.169-.59q-.117-.34-.3-.771c-.128-.292-.23-.556-.307-.791s-.133-.428-.172-.577q-.187-.76-.339-1.2a1.275,1.275,0,0,0-.268-.523.62.62,0,0,0-.294.187q-.425.343-1.027.9t-1.388,1.3a.5.5,0,0,1-.226.189.232.232,0,0,1-.219-.045.919.919,0,0,1-.4-.568.844.844,0,0,1,.2-.647,10.554,10.554,0,0,1,.779-.919,11.231,11.231,0,0,1,.988-.917c.152-.14.283-.268.395-.386a4.03,4.03,0,0,0,.289-.338,1.124,1.124,0,0,0,.177-.977q-.133-.562-.039-.688a1.187,1.187,0,0,1,.317-.3.679.679,0,0,1,.354-.107c.292.022.563.039.817.051a.231.231,0,0,0,.176-.058,1.278,1.278,0,0,0,.2-.221c.045-.06.092-.124.145-.193s.1-.133.145-.193q.625-.779,1.289-1.629c.031-.042.08-.108.148-.2s.148-.212.244-.365a2.05,2.05,0,0,1,.217-.307c.074-.088.142-.171.2-.249.054-.147.1-.274.138-.381a1.043,1.043,0,0,1,.145-.278c.054-.072.145-.18.271-.324s.214-.248.263-.314q.094-.125.24-.367c.1-.161.175-.28.232-.358a1.724,1.724,0,0,1,.613-.509,2.635,2.635,0,0,1,.891-.244,2.938,2.938,0,0,1,.893.073,2.024,2.024,0,0,1,.732.344c.1.076.247.2.437.362s.341.29.456.376a3.574,3.574,0,0,1,.489.675,4.253,4.253,0,0,1,.332.325,2.105,2.105,0,0,1,.21.263c.1.185.172.327.227.429a1.059,1.059,0,0,0,.129.2c.075.112.141.208.2.289a.8.8,0,0,1,.116.228c.051.094.111.2.181.332s.146.269.234.427a4.871,4.871,0,0,1,.323.832,6.423,6.423,0,0,1,.185.868,3.281,3.281,0,0,1-.042.957,1.833,1.833,0,0,1-.317.724q-.067.09-.205.246t-.328.335a1.381,1.381,0,0,1-.691.36,5.4,5.4,0,0,1-1.2.136,9.776,9.776,0,0,1-1.148-.04,3.668,3.668,0,0,1-.873-.184,1.248,1.248,0,0,0-.293.018,2.4,2.4,0,0,1-.566-.031q-.41-.053-1.085-.181-1.229-.231-1.711-.376T568.178,245.72Zm2.3-5.038c.177,0,.347,0,.509,0a.773.773,0,0,1,.486.175c.072.054.1.2.087.437a.963.963,0,0,1-.108.472,2.618,2.618,0,0,1-.26.254c-.143.127-.342.295-.6.5q-.858.717-1.051.917t-.631.6a3.694,3.694,0,0,0-.3.252.217.217,0,0,0-.057.14.14.14,0,0,0,.059.1q2.461.441,2.553.452a1.553,1.553,0,0,0,.189.065,1.891,1.891,0,0,0,.2.046l.262-.069q.771.058,1.611.1a2.829,2.829,0,0,0,.918-.139,1.189,1.189,0,0,0,.561-.394,1.111,1.111,0,0,0,.1-.945,5.216,5.216,0,0,0-.7-1.488,10.043,10.043,0,0,0-.909-1.277,5.678,5.678,0,0,0-.89-.854,1.909,1.909,0,0,0-1.02-.448.848.848,0,0,0-.738.379,2.208,2.208,0,0,0-.3.5C570.406,240.576,570.412,240.654,570.476,240.682Z" transform="translate(-339 -158.757)"/>
    <path class="cls-1" d="M578.77,258.393l-.372,1.054c-.111,0-.239,0-.382-.018s-.308-.036-.49-.069c-.152-.065-.343-.136-.572-.21s-.492-.16-.789-.255a6.114,6.114,0,0,1-.6-.13.824.824,0,0,1-.281-.116,2.178,2.178,0,0,0-.48-.264c-.246-.111-.582-.245-1-.4-.223-.089-.455-.184-.7-.288s-.489-.22-.735-.349l-.421-.574-.445-.142c-.106-.095-.212-.192-.318-.292s-.2-.2-.3-.3a1.292,1.292,0,0,1-.3-.393.246.246,0,0,1,.028-.276l.336-.273,0-.1a.9.9,0,0,1-.314-.415c-.02-.108.055-.254.219-.438.074-.083.205-.219.388-.408s.423-.43.719-.728a.874.874,0,0,1,.212-.127.794.794,0,0,0,.227-.144.636.636,0,0,1,.07-.179.775.775,0,0,1,.073-.1q.309-.311.79-.74t1.15-1.006a10.78,10.78,0,0,0,.961-.736q.312-.384.641-.784,1.553-1.111,3.137-2.225a1.949,1.949,0,0,1,.615-.309,3.775,3.775,0,0,1,.721-.14.736.736,0,0,0,.191.006c.072-.026.164-.057.277-.092s.24-.072.387-.113c.054.008.138.023.253.046l.47.089c.1.005.207.01.336.014s.275.005.445.007a7.91,7.91,0,0,0,.953.122,1.8,1.8,0,0,1,.918.347q.2.163.4.323c.135.106.268.207.394.3a3.376,3.376,0,0,1,.331.22c.065.039.125.071.176.1a.581.581,0,0,1,.128.084,1.343,1.343,0,0,1,.127.136c.052.061.12.144.2.251.074.075.139.138.194.188a1.78,1.78,0,0,0,.167.134,1.326,1.326,0,0,1,.23.734.939.939,0,0,1-.252.6,3.283,3.283,0,0,1-.881.757.508.508,0,0,1-.607-.038.949.949,0,0,1-.25-.563q-.064-.4-1.094-1.319l-1-.589a.4.4,0,0,1-.186.015.8.8,0,0,1-.141-.037l-.2-.37a1.032,1.032,0,0,0-.548.006,4.979,4.979,0,0,0-.906.3,1,1,0,0,0-.25.153,2.437,2.437,0,0,0-.283.275q-.69.468-1.342.894c-.455.316-.8.552-1.047.706s-.391.249-.441.283c-.066.041-.129.082-.185.121a.96.96,0,0,0-.151.136.386.386,0,0,0-.108.2.194.194,0,0,0,.073.171,1.337,1.337,0,0,0,.611.05,1.614,1.614,0,0,1,.708.076c.147.072.3.142.453.209s.321.132.5.191a3.874,3.874,0,0,1,.458.289q.36.247.989.7l.174.277.52.313.137.318a1.343,1.343,0,0,1-.029.344,2.906,2.906,0,0,1-.105.379,2.751,2.751,0,0,1-.791.664.474.474,0,0,1-.559-.033l-.295-.6q-.621-.451-1.227-.895t-1.228-.91a3.216,3.216,0,0,0-1.491-.506,1.577,1.577,0,0,0-1.168.462,3.429,3.429,0,0,1-.358.282q-.252.182-.618.456l-.166.3q-.4.292-.725.573a6.143,6.143,0,0,0-.551.531.3.3,0,0,0-.084.144q-.009.06.041.073.431.326.689.526a3.659,3.659,0,0,1,.35.3q.2.212.414.431l.564.43a3.4,3.4,0,0,0,.483.192,1.781,1.781,0,0,1,.611.336,3.308,3.308,0,0,0,.534.388,4.248,4.248,0,0,0,.593.289c.2.079.4.155.6.229s.4.15.6.229a2.1,2.1,0,0,0,.3.107Q578.485,258.336,578.77,258.393Z" transform="translate(-339 -158.757)"/>
  </g>
  <circle class="cls-2" cx="158.5" cy="183.743" r="139.5"/>
  <circle class="cls-1" cx="158.5" cy="183.743" r="93.5"/>
  <circle class="cls-1" cx="158.5" cy="183.743" r="93.5"/>
  <circle cx="158.5" cy="183.743" r="57.5"/>
  <circle class="cls-3" cx="158.5" cy="183.743" r="88"/>
  <circle class="cls-4" cx="158.5" cy="183.743" r="73"/>
  <circle class="cls-3" cx="158.5" cy="183.743" r="62"/>
  <polygon class="cls-1" points="59.348 177.448 47.122 170.866 34.489 176.627 37.294 163.633 27.544 154.044 41.504 152.595 48.111 140.907 53.933 153.006 67.767 155.372 57.406 164.297 59.348 177.448"/>
  <polygon class="cls-1" points="284.348 185.448 272.122 178.866 259.489 184.627 262.294 171.633 252.544 162.044 266.504 160.595 273.111 148.907 278.933 161.006 292.767 163.372 282.406 172.297 284.348 185.448"/>
  <g>
    <path class="cls-1" d="M434.818,439.491c-.054-.132-.107-.248-.16-.35q.1-.337.22-.656a5.445,5.445,0,0,0,.2-.657,2.458,2.458,0,0,1,.491-.8,1.3,1.3,0,0,1,.631-.384l1.282-.313q.22-.047.621-.116a.4.4,0,0,1,.321.116.5.5,0,0,1,.1.337,2.976,2.976,0,0,1-.1.465q-.1.384-.28,1.081c-.027.108-.05.221-.07.337a2.288,2.288,0,0,1-.09.349.449.449,0,0,1-.14.273q-.141.157-.36.366.1.233-.43,1.128t-1.651,2.418q-.94,1.267-1.661,2.221t-1.26,1.569q-.281.325-.64.7t-.741.784q.18.245.34.442a.447.447,0,0,1-.08.232q-.281.186-.7.477t-.98.65q-.38.105-.821.232-.3.233-.5.407a5.687,5.687,0,0,1-.71.192,3.279,3.279,0,0,1-.61.063,1.682,1.682,0,0,1-.933-.279c-.288-.186-.432-.376-.432-.569q0-.2.462-.488a2.336,2.336,0,0,0,.521-.384l-.06-.116-.2-.151a2.208,2.208,0,0,0-.221-.528,2.78,2.78,0,0,0-.341-.459,3.652,3.652,0,0,1-.643-.854,8.359,8.359,0,0,1-.521-1.157q-.1-.3-.151-.482a1.157,1.157,0,0,1-.05-.238,1.556,1.556,0,0,1-.181-.232q-.1-.151-.221-.349-.1-.384-.251-.965t-.311-1.36a.628.628,0,0,0-.05-.221,3.057,3.057,0,0,0-.15-.313,1.184,1.184,0,0,1-.161-.3.78.78,0,0,1-.04-.232q.02-.337.02-.663c-.081-.17-.107-.271-.08-.3l.161-.453a1.349,1.349,0,0,1-.332-.4,1.1,1.1,0,0,1-.13-.546.44.44,0,0,1,.06-.222,1.3,1.3,0,0,1,.141-.2,2.147,2.147,0,0,1-.161-.378,1.376,1.376,0,0,1-.06-.413,1.248,1.248,0,0,1-.291-.343.32.32,0,0,1-.03-.3l.121-.465c-.054-.116-.1-.214-.141-.291q.22-.7.38-1.116a3.129,3.129,0,0,1,.241-.534,2.113,2.113,0,0,1,.851-.657,4.617,4.617,0,0,1,1.372-.343q.281-.116.491-.187a1.263,1.263,0,0,1,.391-.069.749.749,0,0,1,.411.122.9.9,0,0,1,.311.354,1.326,1.326,0,0,1,.13.384,1.169,1.169,0,0,1,.01.337q-.081.431-.16.988t-.121,1.244a1.884,1.884,0,0,1-.18.262.536.536,0,0,0-.14.284.923.923,0,0,0,.14.372.933.933,0,0,1,.14.372,1.451,1.451,0,0,1-.04.256q-.04.186-.12.709a5.755,5.755,0,0,0,.2.558,2.357,2.357,0,0,1-.06.419,2.363,2.363,0,0,0-.06.43.165.165,0,0,0,.04.122,1.616,1.616,0,0,1,.161.32,4.485,4.485,0,0,0,.09.587q.07.331.17.784.1.4.252.988t.292,1.372l.02.384a.344.344,0,0,0,.081.191,1.055,1.055,0,0,0,.242.227q.12.315.261.675t.283.744a.363.363,0,0,0,.141.2.376.376,0,0,0,.222.069,3.26,3.26,0,0,0,.7-.522,2.957,2.957,0,0,0,.47-.471q.29-.343.69-.925a2.738,2.738,0,0,1,.3-.36c.133-.14.287-.3.46-.477a6.225,6.225,0,0,0,.719-.849q.46-.615,1.12-1.627.54-.838.91-1.419t.53-.895Z" transform="translate(-339 -158.757)"/>
    <path class="cls-1" d="M437.521,447.35c.214-.163.428-.333.641-.512a17.493,17.493,0,0,0,2.393-1.343,5.9,5.9,0,0,0,1.352-1.2l-.2-.558a3.751,3.751,0,0,1,1.292-.687,4.949,4.949,0,0,1,1.672-.4,2.578,2.578,0,0,1,1.151.233q.471.231.912.487c.146.055.253.1.32.128a2.649,2.649,0,0,1,1.2.965,2.211,2.211,0,0,1-.22,2.831,2.679,2.679,0,0,0-.621,1.308.1.1,0,0,0,.07.093.427.427,0,0,0,.19.035,1.821,1.821,0,0,0,.621-.134,5.771,5.771,0,0,0,.781-.366,10.271,10.271,0,0,1,1.282-.668,3.9,3.9,0,0,0,.541-.215c.106.154.233.321.38.5a7,7,0,0,1,.421.57c-.121.062-.257.136-.411.221s-.337.183-.551.291q-.681.29-1.772.7t-2.614.947a5.284,5.284,0,0,1-.921.244,4.114,4.114,0,0,1-1.262-.146q-.421-.145-.421-.471a.654.654,0,0,1,.09-.3,2.377,2.377,0,0,1,.25-.366c.08-.1.167-.2.26-.308a2.276,2.276,0,0,0,.24-.319,8.133,8.133,0,0,0,.671-1.36,3.323,3.323,0,0,0,.23-1.128,1.264,1.264,0,0,0-.331-.941,1.521,1.521,0,0,0-.991-.372,6.915,6.915,0,0,0-.961.4,7.668,7.668,0,0,0-1.062.64q-.581.417-1.042.686a3.93,3.93,0,0,1-.761.36,2.843,2.843,0,0,1-.581.4,9.126,9.126,0,0,1-1.062.477l-.12.14a1.232,1.232,0,0,1-.26.209,5.605,5.605,0,0,0-.36-.529C437.829,447.716,437.682,447.535,437.521,447.35Z" transform="translate(-339 -158.757)"/>
    <path class="cls-1" d="M451.521,446.838l1.822-.7c.067-.039.147-.092.241-.157a2.346,2.346,0,0,0,.32-.285,1.148,1.148,0,0,1,.371-.256,3.573,3.573,0,0,1,.531-.186c.106-.077.26-.175.46-.291s.454-.251.761-.406c.147-.047.334-.114.561-.2a6.306,6.306,0,0,0,.741-.354,23.691,23.691,0,0,1,3.195-1.5,7.007,7.007,0,0,1,2.313-.5,1.775,1.775,0,0,1,.771.128.394.394,0,0,1,.25.36.665.665,0,0,1-.15.43,1.137,1.137,0,0,1-.471.314q-.5.208-1.082.465a8.457,8.457,0,0,1-.781.518,9.561,9.561,0,0,1-1.082.54c-.134.1-.247.19-.34.268-.067.039-.194.108-.381.209s-.434.217-.741.349a3.5,3.5,0,0,1-.872.663q-.671.407-1.792.977a4.787,4.787,0,0,0-.5.372q-.36.29-.941.767l.141.1a4.61,4.61,0,0,0,.921-.278,9.942,9.942,0,0,0,1.062-.523l1.111-.587q.431-.227.611-.3l.281-.093c.093-.031.2-.069.32-.116a8.3,8.3,0,0,1,1.722-.947,4.163,4.163,0,0,1,1.482-.309.949.949,0,0,1,.641.192.845.845,0,0,1,.26.575q-.04.582-.04,1.116a.791.791,0,0,0,.351.668,1.5,1.5,0,0,0,.971.3,1.072,1.072,0,0,0,.351-.059,2.575,2.575,0,0,0,.351-.15c.093-.07.183-.136.27-.2s.177-.124.271-.186c.053-.016.13-.043.23-.082a2.055,2.055,0,0,0,.291-.139q.28.349.47.61a3.452,3.452,0,0,1,.291.459q-.461.243-.911.506t-.951.494a6.707,6.707,0,0,1-1.162.4,4.787,4.787,0,0,1-1.122.134,3.858,3.858,0,0,1-2-.43,1.72,1.72,0,0,1-.821-1.3.525.525,0,0,0-.05-.215.62.62,0,0,0-.21-.227c-.067.039-.14.08-.22.122s-.173.1-.28.169l-.651.29q-.39.174-.911.419-.7.419-1.182.686t-.681.384a10.068,10.068,0,0,1-.931.4q-.531.2-1.191.406c-.28.086-.521.153-.721.2a2.068,2.068,0,0,1-.44.075,2.864,2.864,0,0,1-1.422-.273.912.912,0,0,1-.461-.843.942.942,0,0,1,.23-.6,2.483,2.483,0,0,1,.691-.552,1,1,0,0,0,.04-.244.2.2,0,0,0-.05-.122,1.783,1.783,0,0,0-.13-.146l-.271-.366q-.15-.2-.331-.436a1.654,1.654,0,0,0,.23-.181Q451.32,447.036,451.521,446.838Z" transform="translate(-339 -158.757)"/>
    <path class="cls-1" d="M466.28,447.35a2.051,2.051,0,0,1,.21-.181c.087-.065.19-.146.311-.238.133-.062.307-.151.521-.268s.454-.251.721-.406q.36-.233.881-.576l1.262-.831q.32-.2.8-.506t1.142-.737a4.176,4.176,0,0,1,1.2-.57,4.863,4.863,0,0,1,1.362-.186,1.74,1.74,0,0,1,1.062.262.9.9,0,0,1,.34.761,3.22,3.22,0,0,1-.34,1.023q-.341.756-1.062,2-.18.233-.34.442a.933.933,0,0,0-.16.268.586.586,0,0,0-.04.174c0,.047.046.1.14.175a.892.892,0,0,0,.19-.094c.06-.038.13-.085.21-.139a2.122,2.122,0,0,1,.491-.366q.33-.192.791-.425a2.486,2.486,0,0,1,.471-.39,4.63,4.63,0,0,1,.651-.354,1.749,1.749,0,0,0,.21-.151c.086-.069.19-.143.31-.221a6.936,6.936,0,0,1,.621-.313q.36-.163.841-.337.541-.163.972-.256a3.581,3.581,0,0,1,.751-.093,3.224,3.224,0,0,1,1.1.174,2.039,2.039,0,0,1,.821.547q.4.721.761,1.337a1.631,1.631,0,0,0,.491.534,1.1,1.1,0,0,0,.611.175,1.754,1.754,0,0,0,.471-.059,1.4,1.4,0,0,0,.39-.174l.8,1.069-.7.337-.7.337a3.774,3.774,0,0,1-.861.343,3.336,3.336,0,0,1-1.682-.017,2.073,2.073,0,0,1-.721-.35,2,2,0,0,1-.4-.343q-.24-.249-.561-.622a6,6,0,0,1-.591-.4q-.33-.25-.771-.587l-.181-.035a4.309,4.309,0,0,0-.75.209,6.978,6.978,0,0,0-.79.36,8.4,8.4,0,0,1-1.3.581,1.226,1.226,0,0,0-.54.268,6.281,6.281,0,0,1-.96.721q-.68.442-1.7,1.047-.26.151-.52.3t-.52.285a2.05,2.05,0,0,1-.59.18,4.658,4.658,0,0,1-.73.053q-.8,0-.871-.32t-.13-.645q.3-.489.68-1.221t.876-1.709a.308.308,0,0,1,.069-.157c.046-.065.1-.152.168-.262a1.28,1.28,0,0,0,.139-.261.589.589,0,0,0,.04-.192.144.144,0,0,0-.1-.128.832.832,0,0,0-.321-.046,1.463,1.463,0,0,0-.531.139,5.284,5.284,0,0,0-.791.442q-.561.349-.9.546a2.651,2.651,0,0,1-.461.232,4.471,4.471,0,0,0-.471.232q-.27.152-.611.338l-.12.14a1.232,1.232,0,0,1-.26.209,2.353,2.353,0,0,0-.28-.431Q466.6,447.733,466.28,447.35Z" transform="translate(-339 -158.757)"/>
    <path class="cls-1" d="M485.426,447.35l.181-.094c.013-.085.107-.186.28-.3a6.407,6.407,0,0,1,.741-.407q.3-.127.631-.244a6.693,6.693,0,0,0,.631-.256q1.262-.627,2.443-1.209a12.324,12.324,0,0,1,1.362-.6,12.932,12.932,0,0,1,1.282-.4,5.235,5.235,0,0,1,1.572-.64,7.236,7.236,0,0,1,1.873-.325.935.935,0,0,1,.451.093.4.4,0,0,1,.21.232v.64a.756.756,0,0,1-.331.6,3.342,3.342,0,0,1-.991.482q-.441.116-.881.256t-.881.255a6.731,6.731,0,0,1-.851.437q-.691.319-1.873.854-.541.243-.9.436a3.2,3.2,0,0,0-.5.309,1.657,1.657,0,0,0-.311.488,1.606,1.606,0,0,0-.11.616.756.756,0,0,0,.14.459.953.953,0,0,0,.42.308,3.8,3.8,0,0,0,.551.163q.35.081.871.163.3-.07.791-.134t1.092-.169q.68-.233,1.392-.488t1.412-.523c.066-.022.15-.048.25-.075a1.616,1.616,0,0,0,.31-.122,5.105,5.105,0,0,1,.551-.349q.35-.2.851-.453a9.972,9.972,0,0,1,.8,1.069q-.741.349-1.5.715a8.605,8.605,0,0,1-1.743.6q-.32.151-.541.279a8.136,8.136,0,0,1-2.333.877,14,14,0,0,1-3.034.3,5.91,5.91,0,0,1-.681-.035,3.113,3.113,0,0,1-.5-.093q-.6-.233-1.021-.407a7.473,7.473,0,0,1-.741-.354,1.825,1.825,0,0,1-.441-.319.86.86,0,0,1-.25-.4,2,2,0,0,1-.07-.569.828.828,0,0,1,.1-.3.847.847,0,0,0,.1-.29,4.434,4.434,0,0,0-.34-.523A6.561,6.561,0,0,0,485.426,447.35Z" transform="translate(-339 -158.757)"/>
    <path class="cls-1" d="M498.063,447.35a3.777,3.777,0,0,1,.621-.494,7.408,7.408,0,0,1,.961-.518c.04-.155.08-.308.12-.459a2.738,2.738,0,0,0,.08-.459,2.457,2.457,0,0,1,.19-.384q.13-.221.291-.477.18-.256.491-.64a9.356,9.356,0,0,1,.811-.86q.42-.267.881-.587t.921-.646q.22-.1.48-.2t.521-.209q.241-.047.541-.082a5.72,5.72,0,0,1,.661-.034,4.554,4.554,0,0,1,.812.058,1.312,1.312,0,0,1,.51.2,1.067,1.067,0,0,1,.271.279,2.79,2.79,0,0,1,.25.453q.06.233.14.512c0-.046-.023-.027-.07.059s-.117.221-.21.406l-.18.372a4.232,4.232,0,0,1-1.262,1.291,25.883,25.883,0,0,1-2.644,1.674.872.872,0,0,0-.241.2.4.4,0,0,0-.1.262.662.662,0,0,0,.15.43.894.894,0,0,0,.431.279,2.7,2.7,0,0,0,.511.14c.233.047.51.089.831.128a10.606,10.606,0,0,0,1.422-.151,8.6,8.6,0,0,0,1.142-.279c.066-.022.173-.056.32-.1a2.9,2.9,0,0,0,.44-.168q.26.337.461.6t.32.465a13.318,13.318,0,0,1-2.073.982,5.15,5.15,0,0,1-1.712.331,3.455,3.455,0,0,1-.731.169,7.958,7.958,0,0,1-.971.052,6,6,0,0,1-1.312-.128,2.932,2.932,0,0,1-.951-.372,1.636,1.636,0,0,1-.4-.343,6.229,6.229,0,0,1-.421-.54,1.7,1.7,0,0,0-.34-.378.576.576,0,0,0-.36-.122.908.908,0,0,0-.361.087,2.38,2.38,0,0,0-.44.262,2.353,2.353,0,0,0-.28-.431Q498.385,447.733,498.063,447.35Zm6.409-3.778a2.082,2.082,0,0,0-1.181.668q-.741.669-.741.982a.1.1,0,0,0,.05.1.485.485,0,0,0,.21.029.5.5,0,0,0,.36-.134c.093-.089.181-.172.261-.25q.22-.116.43-.25l.411-.261a1.467,1.467,0,0,0,.361-.326.546.546,0,0,0,.12-.325.219.219,0,0,0-.07-.169A.307.307,0,0,0,504.472,443.571Z" transform="translate(-339 -158.757)"/>
    <path class="cls-1" d="M508.778,446.838l1.822-.7c.067-.039.147-.092.241-.157a2.346,2.346,0,0,0,.32-.285,1.148,1.148,0,0,1,.371-.256,3.573,3.573,0,0,1,.531-.186c.106-.077.26-.175.46-.291s.454-.251.761-.406c.147-.047.334-.114.561-.2a6.306,6.306,0,0,0,.741-.354,23.691,23.691,0,0,1,3.195-1.5,7.007,7.007,0,0,1,2.313-.5,1.775,1.775,0,0,1,.771.128.394.394,0,0,1,.25.36.665.665,0,0,1-.15.43,1.137,1.137,0,0,1-.471.314q-.5.208-1.082.465a8.457,8.457,0,0,1-.781.518,9.561,9.561,0,0,1-1.082.54c-.134.1-.247.19-.34.268-.067.039-.194.108-.381.209s-.434.217-.741.349a3.5,3.5,0,0,1-.872.663q-.671.407-1.792.977a4.787,4.787,0,0,0-.5.372q-.36.29-.941.767l.141.1a4.61,4.61,0,0,0,.921-.278,9.942,9.942,0,0,0,1.062-.523l1.111-.587q.431-.227.611-.3l.281-.093c.093-.031.2-.069.32-.116a8.3,8.3,0,0,1,1.722-.947,4.163,4.163,0,0,1,1.482-.309.949.949,0,0,1,.641.192.845.845,0,0,1,.26.575q-.04.582-.04,1.116a.791.791,0,0,0,.351.668,1.5,1.5,0,0,0,.971.3,1.072,1.072,0,0,0,.351-.059,2.575,2.575,0,0,0,.351-.15c.093-.07.183-.136.27-.2s.177-.124.271-.186c.053-.016.13-.043.23-.082a2.055,2.055,0,0,0,.291-.139q.28.349.47.61a3.452,3.452,0,0,1,.291.459q-.461.243-.911.506t-.951.494a6.707,6.707,0,0,1-1.162.4,4.787,4.787,0,0,1-1.122.134,3.858,3.858,0,0,1-2-.43,1.72,1.72,0,0,1-.821-1.3.525.525,0,0,0-.05-.215.62.62,0,0,0-.21-.227c-.067.039-.14.08-.22.122s-.173.1-.28.169l-.651.29q-.39.174-.911.419-.7.419-1.182.686t-.681.384a10.068,10.068,0,0,1-.931.4q-.531.2-1.191.406c-.28.086-.521.153-.721.2a2.068,2.068,0,0,1-.44.075,2.864,2.864,0,0,1-1.422-.273.912.912,0,0,1-.461-.843.942.942,0,0,1,.23-.6,2.483,2.483,0,0,1,.691-.552,1,1,0,0,0,.04-.244.2.2,0,0,0-.05-.122,1.783,1.783,0,0,0-.13-.146l-.271-.366q-.15-.2-.331-.436a1.654,1.654,0,0,0,.23-.181Q508.578,447.036,508.778,446.838Z" transform="translate(-339 -158.757)"/>
    <path class="cls-1" d="M523.538,447.35a2.051,2.051,0,0,1,.21-.181c.087-.065.19-.146.311-.238.133-.062.307-.151.521-.268s.454-.251.721-.406q.36-.233.881-.576l1.262-.831q.32-.2.8-.506t1.142-.737a4.176,4.176,0,0,1,1.2-.57,4.863,4.863,0,0,1,1.362-.186,1.74,1.74,0,0,1,1.062.262.9.9,0,0,1,.34.761,3.22,3.22,0,0,1-.34,1.023q-.341.756-1.062,2-.18.233-.34.442a.933.933,0,0,0-.16.268.586.586,0,0,0-.04.174c0,.047.046.1.14.175a.892.892,0,0,0,.19-.094c.06-.038.13-.085.21-.139a2.122,2.122,0,0,1,.491-.366q.33-.192.791-.425a2.486,2.486,0,0,1,.471-.39,4.63,4.63,0,0,1,.651-.354,1.749,1.749,0,0,0,.21-.151c.086-.069.19-.143.31-.221a6.936,6.936,0,0,1,.621-.313q.36-.163.841-.337.541-.163.972-.256a3.581,3.581,0,0,1,.751-.093,3.224,3.224,0,0,1,1.1.174,2.039,2.039,0,0,1,.821.547q.4.721.761,1.337a1.631,1.631,0,0,0,.491.534,1.1,1.1,0,0,0,.611.175,1.754,1.754,0,0,0,.471-.059,1.4,1.4,0,0,0,.39-.174l.8,1.069-.7.337-.7.337a3.774,3.774,0,0,1-.861.343,3.336,3.336,0,0,1-1.682-.017,2.073,2.073,0,0,1-.721-.35,2,2,0,0,1-.4-.343q-.24-.249-.561-.622a6,6,0,0,1-.591-.4q-.33-.25-.771-.587l-.181-.035a4.309,4.309,0,0,0-.75.209,6.978,6.978,0,0,0-.79.36,8.4,8.4,0,0,1-1.3.581,1.226,1.226,0,0,0-.54.268,6.281,6.281,0,0,1-.96.721q-.68.442-1.7,1.047-.26.151-.52.3t-.52.285a2.05,2.05,0,0,1-.59.18,4.658,4.658,0,0,1-.73.053q-.8,0-.871-.32t-.13-.645q.3-.489.68-1.221t.876-1.709a.308.308,0,0,1,.069-.157c.046-.065.1-.152.168-.262a1.28,1.28,0,0,0,.139-.261.589.589,0,0,0,.04-.192.144.144,0,0,0-.1-.128.832.832,0,0,0-.321-.046,1.463,1.463,0,0,0-.531.139,5.284,5.284,0,0,0-.791.442q-.561.349-.9.546a2.651,2.651,0,0,1-.461.232,4.471,4.471,0,0,0-.471.232q-.27.152-.611.338l-.12.14a1.232,1.232,0,0,1-.26.209,2.353,2.353,0,0,0-.28-.431Q523.859,447.733,523.538,447.35Z" transform="translate(-339 -158.757)"/>
    <path class="cls-1" d="M542.684,447.35a.452.452,0,0,0,.13-.082.149.149,0,0,0,.05-.116,6.456,6.456,0,0,0,.771-.447q.43-.284.971-.669.44-.349.911-.7t1.011-.7q.441-.349.872-.727t.911-.738q.8-.221,1.242-.313a3.527,3.527,0,0,1,.6-.094.806.806,0,0,1,.461.111.364.364,0,0,1,.16.319.51.51,0,0,1-.06.2c-.04.086-.087.179-.14.279-.094.155-.2.313-.321.477a7.333,7.333,0,0,1-.38.813q-.22.407-.42.8a7.783,7.783,0,0,0-.311.918,3.026,3.026,0,0,0-.11.768,3.115,3.115,0,0,0,.11.965q.11.313.311.278c.133-.046.3-.1.5-.168s.434-.142.7-.227q.36-.221.811-.547t1.091-.767q.36-.325.741-.64l.331-.221q.19-.129.35-.256a2.672,2.672,0,0,1,.851-.831,2.052,2.052,0,0,1,1.052-.273,3.687,3.687,0,0,1,.831.075.771.771,0,0,1,.431.227.748.748,0,0,1,.1.279,2.77,2.77,0,0,1,.04.523,1.19,1.19,0,0,0,.09.372,1.17,1.17,0,0,1,.09.36.787.787,0,0,0,.26.645,1.242,1.242,0,0,0,.8.216,2.467,2.467,0,0,0,.38-.035c.147-.023.293-.051.441-.081l.8,1.069q-1.2.417-1.973.634a4.809,4.809,0,0,1-1.151.215,3.851,3.851,0,0,1-1.643-.3,1.949,1.949,0,0,1-.941-.895.7.7,0,0,0-.17-.279,2.136,2.136,0,0,0-.331-.279q-.18.117-.411.279t-.49.325q-.541.384-1.082.75t-1.1.727a5.153,5.153,0,0,1-1.412.691,4.609,4.609,0,0,1-1.332.216,2.972,2.972,0,0,1-1.482-.32,1.464,1.464,0,0,1-.721-.947,9.153,9.153,0,0,1-.24-.941.862.862,0,0,1-.02-.407,2.116,2.116,0,0,0-.11-.512c-.047-.116-.117-.174-.21-.174l-.121.035-1.141.686a1.4,1.4,0,0,1-.2.2q-.14.123-.38.3a2.353,2.353,0,0,0-.28-.431Q543.005,447.733,542.684,447.35Z" transform="translate(-339 -158.757)"/>
    <path class="cls-1" d="M563.192,439.293q-.06-.231-.14-.488c0,.07.02.016.06-.162s.093-.484.161-.919a1.2,1.2,0,0,0,.23-.227c.047-.065.09-.126.13-.18a2.438,2.438,0,0,1-.271-.216.235.235,0,0,1-.09-.145q.16-.709.3-1.349.02-.174.351-.4a6.126,6.126,0,0,1,.911-.477,8.273,8.273,0,0,1,.9-.372q.441-.151.841-.244a2.388,2.388,0,0,0,.641-.175.38.38,0,0,1,.22-.069.636.636,0,0,1,.491.186.8.8,0,0,1,.17.559,1.367,1.367,0,0,1-.17.546,1.36,1.36,0,0,0-.17.512c0,.047.01.225.03.535s.05.755.09,1.337a3.859,3.859,0,0,0,.311,1.337,10.925,10.925,0,0,0,.751,1.476,4.9,4.9,0,0,0,1.343,1.494,2.745,2.745,0,0,0,1.583.494,4.671,4.671,0,0,0,1.8-.512,19.223,19.223,0,0,0,2.645-1.534q1.162-.791,2.074-1.477a13.386,13.386,0,0,0,1.473-1.256,6.11,6.11,0,0,1,1.222-.918,10.516,10.516,0,0,1,1.6-.744l.46-.151a1.009,1.009,0,0,1,.281-.058.6.6,0,0,1,.543.313,1.843,1.843,0,0,1,.188.931q-.12.57-.2,1.127a12.453,12.453,0,0,1-.53,1.813,14.382,14.382,0,0,1-.91,1.953q-.28.511-.48.9a3.876,3.876,0,0,0-.28.65q-.04.152-.11.378c-.046.151-.1.328-.149.529-.133.193-.28.388-.44.581a1.975,1.975,0,0,0-.33.558,5.321,5.321,0,0,0-.229.756,1.442,1.442,0,0,1-.02.21q-.021.127-.04.267-.46,1.187-.94,2.3a1.006,1.006,0,0,1-.18.268,2.52,2.52,0,0,0-.59.2,3.95,3.95,0,0,0-.69.419,5.024,5.024,0,0,1-.6.343.969.969,0,0,1-.36.11.51.51,0,0,1-.26-.058.21.21,0,0,1-.1-.2.4.4,0,0,1,.06-.15,3.8,3.8,0,0,0,.491-1.14,17.2,17.2,0,0,0,.39-1.837,9.826,9.826,0,0,1,.321-1.255q.3-1.024.881-2.837.08-.29.21-.715t.331-.971c.093-.187.17-.347.23-.482a.856.856,0,0,0,.09-.3.2.2,0,0,0-.07-.168.348.348,0,0,0-.21-.053,1.177,1.177,0,0,0-.441.181,7.651,7.651,0,0,0-.8.54q-.281.2-.571.419c-.194.147-.4.29-.611.43q-.541.325-1,.616l-1.483.86c-.134.047-.3.1-.491.175l-.691.244a3.16,3.16,0,0,1-1.213.6,5.383,5.383,0,0,1-1.533.25,4.319,4.319,0,0,1-1.613-.309,5.122,5.122,0,0,1-1.493-.947q-.321-.313-.631-.628t-.671-.628l-.1.012a3.2,3.2,0,0,0-.371.941q-.27.873-.691,2.558-.461,1.733-.7,2.721a7.278,7.278,0,0,0-.24,1.278.856.856,0,0,1-.9.86q-.22.012-.621.064c-.267.034-.588.079-.961.133a.741.741,0,0,1-.18-.04c-.054-.02-.08-.049-.08-.087l.12-.431-.2-.441q.12-.36.24-.7.08-.7.14-1.314a2.113,2.113,0,0,1,.15-.43,1.3,1.3,0,0,0,.13-.453.737.737,0,0,0-.06-.238.743.743,0,0,1-.06-.238,7.762,7.762,0,0,1,.351-1.9,7.789,7.789,0,0,0,.351-1.906q-.06-.267-.14-.535.1-.417.32-1.046T563.192,439.293Z" transform="translate(-339 -158.757)"/>
    <path class="cls-1" d="M590.249,450.046a.446.446,0,0,1-.15.314,1.568,1.568,0,0,1-.451.29.689.689,0,0,1-.25.262.766.766,0,0,1-.39.087,2.747,2.747,0,0,1-1.4-.337,2.368,2.368,0,0,1-.921-1l.14-.082-.2-.3q.1-.186.18-.36l.16-.349a.617.617,0,0,1,.331-.32,1.343,1.343,0,0,1,.531-.1,2.841,2.841,0,0,1,.971.163,2.33,2.33,0,0,1,.811.5,2.022,2.022,0,0,1,.491.609A1.411,1.411,0,0,1,590.249,450.046Z" transform="translate(-339 -158.757)"/>
  </g>
  <polygon class="cls-5" points="161.5 291.243 165.855 300.067 175.592 301.482 168.546 308.35 170.209 318.048 161.5 313.469 152.791 318.048 154.454 308.35 147.408 301.482 157.145 300.067 161.5 291.243"/>
  <path class="cls-6" d="M521.173,310.859a.274.274,0,0,0,.187.171,6.736,6.736,0,0,0,1.966.292,7.461,7.461,0,0,0,1.942-.252,6.433,6.433,0,0,0,3.242-1.965.243.243,0,0,0,.049-.242.274.274,0,0,0-.187-.171,7.241,7.241,0,0,0-3.908-.04,6.4,6.4,0,0,0-3.242,1.965A.264.264,0,0,0,521.173,310.859Zm3.469-1.693a6.582,6.582,0,0,1,3.128-.081,6.074,6.074,0,0,1-2.665,1.482,6.582,6.582,0,0,1-3.128.081A6.029,6.029,0,0,1,524.642,309.166Z" transform="translate(-339 -158.757)"/>
  <path class="cls-7" d="M459.234,319.134a4.66,4.66,0,0,0,3.128,1.26,4.265,4.265,0,0,0,1.511-.272c2.161-.847,2.713-2.268,2.518-3.316a2.051,2.051,0,0,0-1.95-1.734,1.838,1.838,0,0,0-1.909,1.25.263.263,0,0,0,.211.323.3.3,0,0,0,.357-.191,1.252,1.252,0,0,1,1.316-.847,1.463,1.463,0,0,1,1.4,1.29c.211,1.1-.6,2.127-2.177,2.741a3.854,3.854,0,0,1-3.973-.857,3.018,3.018,0,0,1-.593-3.82,5.468,5.468,0,0,1,4.639-2.409l17.475.01a.315.315,0,0,0,.138-.03,24.669,24.669,0,0,0,14.77-5.392,24.8,24.8,0,0,0,14.737,5.513.315.315,0,0,0,.138.03l17.459.141a5.5,5.5,0,0,1,4.647,2.439,3.021,3.021,0,0,1-.617,3.82,3.856,3.856,0,0,1-3.981.826c-1.568-.625-2.372-1.663-2.161-2.762a1.455,1.455,0,0,1,1.405-1.27,1.263,1.263,0,0,1,1.308.857.3.3,0,0,0,.357.191.268.268,0,0,0,.211-.323,1.857,1.857,0,0,0-1.909-1.26,2.017,2.017,0,0,0-1.958,1.713c-.2,1.048.349,2.469,2.5,3.336a4.071,4.071,0,0,0,1.511.292,4.581,4.581,0,0,0,3.128-1.23,3.51,3.51,0,0,0,.723-4.425,6.062,6.062,0,0,0-5.151-2.741l-13.031-.1a11.154,11.154,0,0,0,7-4.536c1.852-2.873,1.4-7.055-3.079-9.515-2.762-1.512-7.092-1.169-9.132,1.774a4.219,4.219,0,0,0-.447,4.193,4.144,4.144,0,0,0,3.128,2.227,3.958,3.958,0,0,0,3.558-1.139,2.628,2.628,0,0,0,.585-2.7,2.439,2.439,0,0,0-2.6-1.371,2.006,2.006,0,0,0-1.893,1.784.272.272,0,0,0,.276.282.3.3,0,0,0,.317-.242,1.464,1.464,0,0,1,1.389-1.3,1.813,1.813,0,0,1,1.958,1.028,2.113,2.113,0,0,1-.5,2.187,3.258,3.258,0,0,1-3,.947,3.581,3.581,0,0,1-2.689-1.915,3.726,3.726,0,0,1,.4-3.7c1.86-2.671,5.809-2.983,8.327-1.6,4.151,2.278,4.582,6.148,2.876,8.789-1.836,2.842-5.459,4.566-9.944,4.727a23.831,23.831,0,0,1-15.436-5.332c.6-.5,1.186-1.038,1.763-1.613a18.473,18.473,0,0,0,2.478,1.724,6.75,6.75,0,0,0,3.152.958,3.527,3.527,0,0,0,.821-.091,2.319,2.319,0,0,0,1.487-1.068,1.609,1.609,0,0,0,0-1.834,2.013,2.013,0,0,0-1.722-.806,1.621,1.621,0,0,0-1.365.806.248.248,0,0,0,.13.353.31.31,0,0,0,.4-.121.98.98,0,0,1,.861-.514,1.414,1.414,0,0,1,1.194.564,1.142,1.142,0,0,1-.024,1.3,1.706,1.706,0,0,1-1.121.806,5.187,5.187,0,0,1-3.51-.806,16.972,16.972,0,0,1-2.4-1.673c.536-.564,1.048-1.159,1.552-1.784a.244.244,0,0,0,.041-.222v-.01a.056.056,0,0,0-.016-.03c-.008-.01-.008-.02-.016-.03l-.008-.01-.049-.06a25.545,25.545,0,0,1-1.925-1.794,27.693,27.693,0,0,0,3.745-5.574.258.258,0,0,0-.154-.353.3.3,0,0,0-.39.141,27.127,27.127,0,0,1-3.607,5.352,17.051,17.051,0,0,1-1.422-1.774c1.958-2.923,3.022-6.713-.049-10.5a.306.306,0,0,0-.236-.111h-.016a.306.306,0,0,0-.236.111c-3.1,3.77-2.055,7.559-.114,10.5a16.863,16.863,0,0,1-1.43,1.754,27.229,27.229,0,0,1-3.575-5.382.3.3,0,0,0-.382-.141.261.261,0,0,0-.154.353,28.16,28.16,0,0,0,3.713,5.6c-.658.675-1.324,1.27-1.934,1.784a.16.16,0,0,0-.049.06h0a.056.056,0,0,0-.016.03.043.043,0,0,0-.008.03v.01a.277.277,0,0,0,.041.222c.5.635,1.007,1.23,1.544,1.794a17.277,17.277,0,0,1-2.4,1.653,5.163,5.163,0,0,1-3.518.776,1.716,1.716,0,0,1-1.113-.816,1.124,1.124,0,0,1-.016-1.3,1.432,1.432,0,0,1,1.194-.554,1.009,1.009,0,0,1,.861.524.32.32,0,0,0,.4.121.248.248,0,0,0,.13-.353,1.616,1.616,0,0,0-1.357-.826,2.015,2.015,0,0,0-1.722.8,1.622,1.622,0,0,0-.008,1.834,2.3,2.3,0,0,0,1.479,1.078,3.515,3.515,0,0,0,.821.1,6.736,6.736,0,0,0,3.16-.927,17.436,17.436,0,0,0,2.486-1.7c.569.585,1.154,1.119,1.747,1.623a23.842,23.842,0,0,1-15.46,5.2c-4.485-.2-8.1-1.955-9.92-4.818-1.7-2.661-1.235-6.521,2.925-8.769,2.535-1.361,6.483-1.018,8.319,1.663a3.765,3.765,0,0,1,.382,3.709,3.564,3.564,0,0,1-2.681,1.895,3.306,3.306,0,0,1-3.006-.968,2.13,2.13,0,0,1-.479-2.187,1.8,1.8,0,0,1,1.966-1.008,1.466,1.466,0,0,1,1.381,1.31.287.287,0,0,0,.317.252.283.283,0,0,0,.276-.282,2.009,2.009,0,0,0-1.885-1.794,2.424,2.424,0,0,0-2.6,1.351,2.628,2.628,0,0,0,.577,2.711,4.018,4.018,0,0,0,3.567,1.169,4.128,4.128,0,0,0,3.128-2.207,4.235,4.235,0,0,0-.422-4.2c-2.023-2.953-6.353-3.336-9.123-1.844-4.485,2.419-4.972,6.6-3.128,9.484a11.185,11.185,0,0,0,6.979,4.6H463.711a6.021,6.021,0,0,0-5.151,2.7A3.443,3.443,0,0,0,459.234,319.134Zm38.655-17.89a22.716,22.716,0,0,0,1.7,1.6c-.439.544-.894,1.058-1.357,1.552-.585-.5-1.17-1.048-1.747-1.633C496.971,302.272,497.442,301.758,497.889,301.244Zm-1.763-12.518c2.535,3.356,1.739,6.682-.024,9.414C494.347,295.4,493.575,292.062,496.126,288.726ZM496.1,299.1a18.517,18.517,0,0,0,1.4,1.724c-.455.524-.918,1.038-1.405,1.532-.479-.5-.951-1.018-1.4-1.542A19.816,19.816,0,0,0,496.1,299.1Zm-3.51,3.719c.512-.433,1.1-.968,1.706-1.592.447.524.91,1.038,1.389,1.532-.577.575-1.162,1.119-1.755,1.613C493.478,303.884,493.023,303.36,492.592,302.816Zm1.739,1.965c.593-.5,1.186-1.038,1.763-1.613q.865.862,1.755,1.633c-.577.575-1.162,1.119-1.763,1.613C495.484,305.9,494.9,305.366,494.331,304.781Z" transform="translate(-339 -158.757)"/>
  <path class="cls-6" d="M466.863,310.829a7.035,7.035,0,0,0,1.942.272,7.137,7.137,0,0,0,1.974-.272.279.279,0,0,0,.187-.171.243.243,0,0,0-.049-.242,6.509,6.509,0,0,0-3.233-1.986,7.178,7.178,0,0,0-3.916,0,.279.279,0,0,0-.187.171.264.264,0,0,0,.049.242A6.509,6.509,0,0,0,466.863,310.829Zm.642-1.895a6.031,6.031,0,0,1,2.657,1.5,6.591,6.591,0,0,1-3.128-.111,6.031,6.031,0,0,1-2.657-1.5A6.588,6.588,0,0,1,467.5,308.934Z" transform="translate(-339 -158.757)"/>
  <path class="cls-6" d="M480.552,376.11a.3.3,0,0,0-.26-.06.286.286,0,0,0-.2.161,5.273,5.273,0,0,0-.284,3.518,5.71,5.71,0,0,0,1.966,3.054.338.338,0,0,0,.195.071.13.13,0,0,0,.065-.01.272.272,0,0,0,.2-.161,5.278,5.278,0,0,0,.284-3.518A5.627,5.627,0,0,0,480.552,376.11Zm1.292,6a5.272,5.272,0,0,1-1.47-2.5,4.825,4.825,0,0,1,.106-2.822,5.32,5.32,0,0,1,1.47,2.5A4.9,4.9,0,0,1,481.844,382.107Z" transform="translate(-339 -158.757)"/>
  <path class="cls-7" d="M542.2,346.881a1.634,1.634,0,0,1-1.942.423.307.307,0,0,0-.39.121.251.251,0,0,0,.138.353,2.257,2.257,0,0,0,2.665-.564,1.984,1.984,0,0,0,0-2.711,3.352,3.352,0,0,0-2.884-.907,3.679,3.679,0,0,0-2.9,2.207,3.48,3.48,0,0,0,.561,3.548,5.337,5.337,0,0,0,4.241,1.774A6.377,6.377,0,0,0,548,344.916c-.081-4.717-3.851-7.2-7.531-7.206h-.016a11.748,11.748,0,0,0-7.889,3.145l6.5-10.2a4.917,4.917,0,0,0-.024-5.382,4.4,4.4,0,0,0-4.6-1.673,3.945,3.945,0,0,0-3.25,3.135,3.119,3.119,0,0,0,1.934,3.639,2.233,2.233,0,0,0,2.632-.655,1.56,1.56,0,0,0-.244-2.117.322.322,0,0,0-.414,0,.246.246,0,0,0,0,.373,1.057,1.057,0,0,1,.162,1.451,1.622,1.622,0,0,1-1.934.443c-1.162-.393-1.739-1.542-1.544-3.074a3.387,3.387,0,0,1,2.8-2.681,3.784,3.784,0,0,1,3.965,1.451,4.414,4.414,0,0,1-.008,4.828l-8.709,13.657a.355.355,0,0,0-.041.121,19.209,19.209,0,0,0-2.185,14.252,23.82,23.82,0,0,0-11.471,7.227,142.856,142.856,0,0,0-16.232-1.189c5.736-3.588,15.022-7.045,25.477-11.571-2.421-9.142-2.705-17.88,0-26.064-6.109-1.975-10.4-4.525-10.691-8.355-7.767-1.4-13.941-3.407-17.134-6.571a1.587,1.587,0,0,0,.382-1.018,1.866,1.866,0,0,0-3.713-.01,1.594,1.594,0,0,0,.609,1.24c-3.25,3.034-9.327,4.989-16.906,6.35-.292,3.82-4.582,6.37-10.691,8.355,2.705,8.184,2.421,16.933,0,26.064,10.5,4.546,19.823,8.013,25.551,11.611a142.442,142.442,0,0,0-16.655,1.472A23.606,23.606,0,0,0,464.3,358.15a19.186,19.186,0,0,0-2.112-14.262.239.239,0,0,0-.041-.121l-8.62-13.7a4.426,4.426,0,0,1,.016-4.848,3.785,3.785,0,0,1,3.973-1.421,3.389,3.389,0,0,1,2.787,2.7c.179,1.542-.406,2.681-1.568,3.064a1.611,1.611,0,0,1-1.925-.464,1.05,1.05,0,0,1,.171-1.451.247.247,0,0,0,.008-.373.322.322,0,0,0-.414-.01,1.553,1.553,0,0,0-.252,2.117,2.237,2.237,0,0,0,2.624.675,3.1,3.1,0,0,0,1.95-3.618,3.971,3.971,0,0,0-3.233-3.165,4.37,4.37,0,0,0-4.606,1.643,4.913,4.913,0,0,0-.049,5.392l6.442,10.24a11.8,11.8,0,0,0-7.872-3.215c-3.672-.02-7.474,2.429-7.58,7.146a6.41,6.41,0,0,0,6.28,6.259A5.344,5.344,0,0,0,454.53,349a3.471,3.471,0,0,0,.569-3.558,3.711,3.711,0,0,0-2.876-2.217,3.367,3.367,0,0,0-2.892.887,2.007,2.007,0,0,0-.016,2.721,2.282,2.282,0,0,0,2.657.595.251.251,0,0,0,.138-.353.3.3,0,0,0-.39-.121,1.646,1.646,0,0,1-1.942-.433,1.483,1.483,0,0,1,0-2.046,2.719,2.719,0,0,1,2.34-.706,3.045,3.045,0,0,1,2.413,1.875,2.98,2.98,0,0,1-.487,3.054,4.727,4.727,0,0,1-3.753,1.532,5.838,5.838,0,0,1-5.711-5.715,6.666,6.666,0,0,1,6.979-6.622h.008a11.887,11.887,0,0,1,9.53,5.412,18.541,18.541,0,0,1,2.632,14.715c-.78-.222-1.592-.413-2.429-.575a14.576,14.576,0,0,0,.406-2.792,4.526,4.526,0,0,0-1.162-3.538,2.487,2.487,0,0,0-1.771-.635,2.007,2.007,0,0,0-1.755.907,1.6,1.6,0,0,0,.089,1.744,1.645,1.645,0,0,0,1.462.665.269.269,0,1,0-.032-.534,1.062,1.062,0,0,1-.934-.413,1.125,1.125,0,0,1-.057-1.209,1.369,1.369,0,0,1,1.259-.625,1.819,1.819,0,0,1,1.332.474,4.018,4.018,0,0,1,.991,3.145,13.926,13.926,0,0,1-.406,2.711c-.8-.141-1.633-.242-2.494-.323a.293.293,0,0,0-.227.071l-.008.01c-.008.01-.016.01-.024.02l-.024.03-.008.01a.175.175,0,0,0-.032.071,21.4,21.4,0,0,1-.756,2.4,34.716,34.716,0,0,0-7.222-.151.278.278,0,0,0-.26.292.286.286,0,0,0,.325.232,33.51,33.51,0,0,1,6.946.151,16.646,16.646,0,0,1-.983,2c-3.786-.071-7.954.978-10.05,5.271a.235.235,0,0,0,.016.242s0,.01.008.01v.01a.3.3,0,0,0,.219.131,10.838,10.838,0,0,0,1.259.071,10.061,10.061,0,0,0,8.872-5.211,20.481,20.481,0,0,1,2.4.242,26.73,26.73,0,0,1-3.372,5.473.25.25,0,0,0,.057.373.288.288,0,0,0,.179.05.333.333,0,0,0,.236-.1,27.408,27.408,0,0,0,3.51-5.695c.975.181,1.877.4,2.681.625a.271.271,0,0,0,.089.01h.041a.283.283,0,0,0,.236-.151c.357-.706.674-1.4.951-2.1a19.435,19.435,0,0,1,2.795,1.058,4.511,4.511,0,0,1,2.5,2.358,1.446,1.446,0,0,1-.219,1.28,1.408,1.408,0,0,1-1.235.665A1.383,1.383,0,0,1,466,366.1a.829.829,0,0,1,.073-.937.261.261,0,0,0-.081-.373.312.312,0,0,0-.406.071,1.318,1.318,0,0,0-.106,1.472,2.016,2.016,0,0,0,1.625.958h.089a2.009,2.009,0,0,0,1.674-.907,1.933,1.933,0,0,0,.292-1.7,5.066,5.066,0,0,0-2.795-2.7,19.493,19.493,0,0,0-2.884-1.1q.4-1.1.682-2.177a23.03,23.03,0,0,1,11.309,7.388q-5.106.786-10.025,1.945l2.226,2.459a5.139,5.139,0,0,0-3.38,2.358c-1.82,3.054-.016,6.632,2.8,8.053a9.349,9.349,0,0,0,4.241,1.068,7.546,7.546,0,0,0,6.426-3.356,8.576,8.576,0,0,0,1.332-4q.9-.151,1.8-.272l4.314,6.733a6.179,6.179,0,0,0,4.866,2.691c.106,0,.2,0,.309-.01a4.119,4.119,0,0,0,3.9-2.752A3.56,3.56,0,0,0,492.9,376.9c-1.893-1.27-3.542-.988-4.444-.312a1.785,1.785,0,0,0-.682,2.389,1.95,1.95,0,0,0,2.153.877.257.257,0,0,0,.2-.323.311.311,0,0,0-.366-.192,1.315,1.315,0,0,1-1.479-.6,1.288,1.288,0,0,1,.536-1.734c.951-.716,2.348-.585,3.721.333a3.054,3.054,0,0,1,1.17,3.538,3.549,3.549,0,0,1-3.372,2.369,5.472,5.472,0,0,1-4.631-2.429l-4.16-6.561a115.333,115.333,0,0,1,15.737-1.058,117.027,117.027,0,0,1,13.259.746l-4.5,6.924a5.476,5.476,0,0,1-4.655,2.4,3.563,3.563,0,0,1-3.355-2.4,3.057,3.057,0,0,1,1.194-3.528c1.381-.907,2.778-1.018,3.721-.3a1.281,1.281,0,0,1,.52,1.734,1.31,1.31,0,0,1-1.479.595.3.3,0,0,0-.366.181.272.272,0,0,0,.2.333,1.928,1.928,0,0,0,2.161-.857,1.785,1.785,0,0,0-.666-2.389c-.9-.685-2.543-.968-4.452.282a3.57,3.57,0,0,0-1.414,4.1,4.115,4.115,0,0,0,3.883,2.782,3.078,3.078,0,0,0,.309.01,6.167,6.167,0,0,0,4.891-2.661L511.18,374c.5.06.991.121,1.487.192A8.718,8.718,0,0,0,514,378.761a7.58,7.58,0,0,0,6.41,3.407,9.453,9.453,0,0,0,4.249-1.038c2.827-1.4,4.647-4.959,2.852-8.023a4.977,4.977,0,0,0-1.535-1.613l3.144-3.457c-1.146-.272-2.307-.524-3.469-.766a1.75,1.75,0,0,0,.723-.7,1.32,1.32,0,0,0-.1-1.472.315.315,0,0,0-.406-.081.252.252,0,0,0-.081.373.815.815,0,0,1,.065.937,1.4,1.4,0,0,1-1.137.655,1.38,1.38,0,0,1-1.227-.675,1.419,1.419,0,0,1-.211-1.28A4.463,4.463,0,0,1,525.8,362.7a18.143,18.143,0,0,1,2.8-1.038,22.927,22.927,0,0,0,.942,2.107.283.283,0,0,0,.236.151h.041a.271.271,0,0,0,.089-.01c.8-.222,1.706-.433,2.681-.6a27.325,27.325,0,0,0,3.477,5.725.306.306,0,0,0,.236.111.373.373,0,0,0,.179-.05.25.25,0,0,0,.057-.373,27.216,27.216,0,0,1-3.339-5.5,20.685,20.685,0,0,1,2.4-.222,10.108,10.108,0,0,0,8.839,5.291c.406,0,.829-.02,1.259-.06a.283.283,0,0,0,.219-.131l.008-.01s0-.01.008-.01a.235.235,0,0,0,.016-.242c-2.072-4.314-6.231-5.4-10.025-5.352a15.99,15.99,0,0,1-.975-2.006,33.786,33.786,0,0,1,6.946-.091.291.291,0,0,0,.333-.232.272.272,0,0,0-.26-.292,35.016,35.016,0,0,0-7.222.091,21.247,21.247,0,0,1-.739-2.409.273.273,0,0,0-.032-.071s0-.01-.008-.01l-.024-.03c-.008-.01-.016-.02-.024-.02l-.008-.01a.293.293,0,0,0-.227-.071c-.861.071-1.69.171-2.494.3a13.721,13.721,0,0,1-.39-2.711,4.013,4.013,0,0,1,1.007-3.135,1.831,1.831,0,0,1,1.34-.464,1.376,1.376,0,0,1,1.251.635,1.141,1.141,0,0,1-.065,1.209,1.038,1.038,0,0,1-.934.413.269.269,0,1,0-.032.534,1.6,1.6,0,0,0,1.56-2.389,2.011,2.011,0,0,0-1.755-.927,2.459,2.459,0,0,0-1.779.615,4.466,4.466,0,0,0-1.186,3.528,14.472,14.472,0,0,0,.39,2.8c-.837.151-1.649.343-2.429.554a18.526,18.526,0,0,1,2.713-14.7,11.848,11.848,0,0,1,9.562-5.332h.008a6.7,6.7,0,0,1,6.946,6.682,5.818,5.818,0,0,1-5.744,5.664,4.741,4.741,0,0,1-3.745-1.562,2.989,2.989,0,0,1-.479-3.044,3.048,3.048,0,0,1,2.429-1.865,2.727,2.727,0,0,1,2.34.726A1.445,1.445,0,0,1,542.2,346.881Zm-95.573,20.41c1.95-3.659,5.541-4.7,9.042-4.667A9.37,9.37,0,0,1,446.625,367.291Zm11.8-9.736c.739.071,1.462.171,2.161.292-.187.716-.422,1.441-.691,2.177-.715-.131-1.438-.242-2.161-.333A20.074,20.074,0,0,0,458.43,357.555Zm.5,4.848c-.739-.111-1.527-.2-2.348-.242a16.748,16.748,0,0,0,.951-1.945c.731.091,1.462.2,2.177.333C459.47,361.163,459.21,361.788,458.925,362.4Zm2.99.645c-.666-.181-1.479-.383-2.38-.544.276-.615.536-1.23.772-1.855.837.161,1.657.353,2.429.564C462.5,361.818,462.224,362.433,461.915,363.048Zm1.016-2.338c-.78-.212-1.592-.4-2.429-.575.268-.736.5-1.472.682-2.187.845.161,1.649.353,2.429.575A21.271,21.271,0,0,1,462.931,360.71Zm14.355,17.628c-1.7,2.651-5.638,4.213-9.879,2.086-2.575-1.3-4.225-4.556-2.575-7.337a4.532,4.532,0,0,1,3.29-2.137l3.745,4.132a2.492,2.492,0,0,1-1.787,1.32,1.81,1.81,0,0,1-1.958-1.028,1.307,1.307,0,0,1,.561-1.734.252.252,0,0,0,.081-.373.314.314,0,0,0-.406-.071,1.809,1.809,0,0,0-.78,2.369,2.43,2.43,0,0,0,2.6,1.361,3.033,3.033,0,0,0,2.1-1.4l.309.343q2.925-.665,5.939-1.169A8.029,8.029,0,0,1,477.286,378.338Zm19.88-66.844a7.425,7.425,0,0,1-.853-1.119,8.254,8.254,0,0,1-1.072,1.351,1.112,1.112,0,0,1-.414-.847,1.274,1.274,0,0,1,2.535.01A1.182,1.182,0,0,1,497.166,311.494Zm48.071,56.21a9.411,9.411,0,0,1-9.018-4.747C539.721,362.967,543.3,364.036,545.237,367.7ZM525.609,371.9A4.471,4.471,0,0,1,527,373.349c1.641,2.792-.032,6.037-2.616,7.307-4.249,2.1-8.181.5-9.863-2.167a8.113,8.113,0,0,1-1.251-4.213q3.071.423,6.061,1.028a.038.038,0,0,0,.008.02,3.081,3.081,0,0,0,2.3,1.814,2.417,2.417,0,0,0,2.608-1.341,1.791,1.791,0,0,0-.341-2.036Zm-2.08,2.288a1.3,1.3,0,0,1,.171,1.411,1.809,1.809,0,0,1-1.966,1.018,2.5,2.5,0,0,1-1.69-1.169c.65.131,1.308.272,1.95.423Zm6.442-10.855c-.3-.615-.577-1.23-.812-1.834.78-.2,1.592-.383,2.429-.544.236.625.487,1.25.764,1.855C531.45,362.957,530.638,363.149,529.971,363.33Zm5.329-.847a21.428,21.428,0,0,0-2.348.232c-.276-.615-.536-1.24-.772-1.865.723-.121,1.446-.232,2.177-.312A20.889,20.889,0,0,0,535.3,362.484Zm-1.82-4.616c.162.615.382,1.341.674,2.137-.723.091-1.446.192-2.161.323-.26-.736-.487-1.472-.674-2.177C532.019,358.029,532.742,357.938,533.481,357.867Zm-2.746.373c.187.716.406,1.451.666,2.187-.837.161-1.657.343-2.437.554a21.894,21.894,0,0,1-.666-2.187C529.078,358.583,529.89,358.392,530.735,358.24Zm-3,.716a21.9,21.9,0,0,0,.666,2.187,18.456,18.456,0,0,0-2.884,1.078,5.037,5.037,0,0,0-2.811,2.671,1.967,1.967,0,0,0,.284,1.7c.041.06.089.121.13.171-2.08-.383-4.192-.726-6.321-1.018A23.27,23.27,0,0,1,527.737,358.956Z" transform="translate(-339 -158.757)"/>
  <path class="cls-6" d="M536.658,336.792a.251.251,0,0,0,.073.232.316.316,0,0,0,.211.081h.041a6.751,6.751,0,0,0,3.526-1.532,5.67,5.67,0,0,0,1.942-3.054.251.251,0,0,0-.073-.232.326.326,0,0,0-.252-.081,6.7,6.7,0,0,0-3.518,1.532A5.733,5.733,0,0,0,536.658,336.792Zm5.11-3.991a5.332,5.332,0,0,1-1.657,2.389,6.021,6.021,0,0,1-2.762,1.32,5.217,5.217,0,0,1,1.665-2.389A6.159,6.159,0,0,1,541.768,332.8Z" transform="translate(-339 -158.757)"/>
  <path class="cls-6" d="M511.521,376.171a.292.292,0,0,0-.26.06,5.721,5.721,0,0,0-1.982,3.044,5.275,5.275,0,0,0,.268,3.518.286.286,0,0,0,.2.161.147.147,0,0,0,.065.01.281.281,0,0,0,.195-.071,5.733,5.733,0,0,0,1.982-3.034,5.3,5.3,0,0,0-.268-3.528A.272.272,0,0,0,511.521,376.171Zm-.1,3.568a5.255,5.255,0,0,1-1.479,2.49,4.832,4.832,0,0,1-.089-2.822,5.255,5.255,0,0,1,1.479-2.49A4.826,4.826,0,0,1,511.424,379.739Z" transform="translate(-339 -158.757)"/>
  <path class="cls-6" d="M467.951,358a1.687,1.687,0,1,0-1.852-1.693A1.775,1.775,0,0,0,467.951,358Zm0-2.812a1.15,1.15,0,1,1-1.267,1.139A1.213,1.213,0,0,1,467.951,355.186Z" transform="translate(-339 -158.757)"/>
  <path class="cls-6" d="M523.854,354.773a1.682,1.682,0,1,0,1.852,1.673A1.773,1.773,0,0,0,523.854,354.773Zm0,2.822a1.15,1.15,0,1,1,1.267-1.139A1.213,1.213,0,0,1,523.854,357.6Z" transform="translate(-339 -158.757)"/>
  <path class="cls-8" d="M486.9,352.579l2.219,1.239v1.439h-8.578v-1.439l2.227-1.239v-26l-2.1-1.239V324h8.081c2.655,0,3.581.2,4.2,2.177a218.072,218.072,0,0,1,4.193,23.179h.115l4.691-23.425C502.4,324.2,503.134,324,505.3,324h8.455v1.339l-2.1,1.239v25.947L514,353.909v1.339H503.318v-1.339l2.342-1.384v-25.31h-.184L499.607,354.9h-4.859c-1.24,0-1.791-.4-1.974-1.293-1.729-8.871-3.4-17.241-5.372-26.048h-.8l.314,5.647v19.372Z" transform="translate(-339 -158.757)"/>
  <g>
    <path class="cls-1" d="M477.166,367.792c-.016-.043-.033-.082-.048-.115.02-.074.042-.146.066-.216a1.961,1.961,0,0,0,.06-.216.841.841,0,0,1,.148-.264.389.389,0,0,1,.19-.126l.386-.1c.044-.01.106-.023.187-.039a.115.115,0,0,1,.1.039.176.176,0,0,1,.03.111,1.07,1.07,0,0,1-.03.153l-.084.355c-.008.036-.015.073-.021.111a.829.829,0,0,1-.027.115.153.153,0,0,1-.042.09q-.042.051-.108.12.03.077-.13.371t-.5.795q-.283.417-.5.73t-.38.516q-.084.107-.193.231l-.223.258c.036.054.07.1.1.146a.154.154,0,0,1-.024.076l-.211.157q-.127.1-.3.214l-.248.076c-.061.051-.11.1-.151.134a1.484,1.484,0,0,1-.214.063.887.887,0,0,1-.184.021.477.477,0,0,1-.281-.091.248.248,0,0,1-.13-.187c0-.043.046-.1.139-.161a.7.7,0,0,0,.157-.126l-.018-.039-.061-.049a.743.743,0,0,0-.066-.174.911.911,0,0,0-.1-.151,1.18,1.18,0,0,1-.193-.281,2.85,2.85,0,0,1-.157-.38c-.021-.066-.036-.119-.045-.159a.4.4,0,0,1-.015-.078.56.56,0,0,1-.055-.077c-.02-.033-.042-.071-.066-.115l-.076-.317q-.045-.191-.094-.447a.215.215,0,0,0-.015-.072,1.1,1.1,0,0,0-.045-.1.421.421,0,0,1-.048-.1.273.273,0,0,1-.012-.077c0-.074.006-.146.006-.218-.024-.056-.032-.089-.024-.1l.048-.149a.44.44,0,0,1-.1-.13.385.385,0,0,1-.04-.18.153.153,0,0,1,.018-.073.437.437,0,0,1,.042-.065.758.758,0,0,1-.048-.124.485.485,0,0,1-.018-.136.4.4,0,0,1-.088-.113.114.114,0,0,1-.009-.1l.036-.153c-.016-.038-.03-.07-.042-.1q.067-.229.115-.367a1.083,1.083,0,0,1,.072-.176.652.652,0,0,1,.257-.216,1.3,1.3,0,0,1,.414-.113c.056-.025.105-.045.148-.061a.35.35,0,0,1,.118-.023.213.213,0,0,1,.124.04.287.287,0,0,1,.094.117.458.458,0,0,1,.039.126.41.41,0,0,1,0,.111c-.016.094-.032.2-.048.325s-.028.259-.036.409a.649.649,0,0,1-.055.086.181.181,0,0,0-.042.094.318.318,0,0,0,.042.122.323.323,0,0,1,.042.123.505.505,0,0,1-.012.084c-.008.041-.02.119-.036.233a1.914,1.914,0,0,0,.061.184.837.837,0,0,1-.019.138.887.887,0,0,0-.018.142.057.057,0,0,0,.012.04.512.512,0,0,1,.048.1,1.6,1.6,0,0,0,.027.193c.014.073.031.159.051.258l.076.325c.03.13.06.281.088.451l.006.126a.117.117,0,0,0,.024.063.343.343,0,0,0,.073.074c.024.069.05.143.079.222s.057.161.085.245a.116.116,0,0,0,.042.065.106.106,0,0,0,.066.023.983.983,0,0,0,.211-.172.9.9,0,0,0,.142-.155q.088-.113.208-.3a.89.89,0,0,1,.09-.119l.139-.157a2.043,2.043,0,0,0,.217-.279q.138-.2.337-.535l.274-.467q.111-.19.16-.294Z" transform="translate(-339 -158.757)"/>
    <path class="cls-1" d="M477.981,370.376c.064-.054.129-.109.193-.168a5.2,5.2,0,0,0,.721-.442,1.839,1.839,0,0,0,.408-.4l-.061-.184a1.117,1.117,0,0,1,.39-.226,1.391,1.391,0,0,1,.5-.13.727.727,0,0,1,.347.077c.095.051.186.1.275.161.044.018.076.032.1.042a.81.81,0,0,1,.362.317.945.945,0,0,1,.121.493.919.919,0,0,1-.187.438.922.922,0,0,0-.187.43.033.033,0,0,0,.021.03.119.119,0,0,0,.058.012.513.513,0,0,0,.187-.044,1.663,1.663,0,0,0,.235-.121,3.015,3.015,0,0,1,.387-.22,1.118,1.118,0,0,0,.163-.071c.032.051.071.106.115.165s.086.121.127.187l-.124.073c-.046.028-.1.06-.167.1q-.205.1-.534.231t-.788.312a1.479,1.479,0,0,1-.278.081,1.145,1.145,0,0,1-.38-.048.164.164,0,0,1-.127-.155.231.231,0,0,1,.027-.1.773.773,0,0,1,.075-.12c.024-.033.05-.067.079-.1a.751.751,0,0,0,.073-.1,2.783,2.783,0,0,0,.2-.447,1.189,1.189,0,0,0,.069-.371.384.384,0,0,0-.4-.432,2.05,2.05,0,0,0-.29.13,2.346,2.346,0,0,0-.32.21,3.812,3.812,0,0,1-.314.226,1.12,1.12,0,0,1-.229.118.833.833,0,0,1-.175.13,2.5,2.5,0,0,1-.32.157l-.036.046a.365.365,0,0,1-.079.069,1.851,1.851,0,0,0-.108-.174C478.074,370.5,478.029,370.437,477.981,370.376Z" transform="translate(-339 -158.757)"/>
    <path class="cls-1" d="M482.2,370.208l.549-.229c.02-.013.044-.03.072-.052a.7.7,0,0,0,.1-.094.347.347,0,0,1,.112-.084,1.012,1.012,0,0,1,.16-.061c.032-.025.079-.057.139-.1s.137-.083.229-.134c.044-.015.1-.038.169-.067a1.81,1.81,0,0,0,.223-.117,6.917,6.917,0,0,1,.963-.493,1.958,1.958,0,0,1,.7-.165.5.5,0,0,1,.232.042.13.13,0,0,1,.075.119.23.23,0,0,1-.045.141.337.337,0,0,1-.142.1q-.151.069-.326.153a2.511,2.511,0,0,1-.235.17,2.748,2.748,0,0,1-.326.178q-.06.05-.1.088c-.02.013-.059.036-.115.069s-.131.071-.223.115a1.071,1.071,0,0,1-.263.218c-.135.089-.315.2-.541.321a1.544,1.544,0,0,0-.151.122l-.284.252.042.035a1.32,1.32,0,0,0,.278-.092,2.888,2.888,0,0,0,.32-.172l.335-.193a2.083,2.083,0,0,1,.184-.1l.084-.03.1-.038a2.437,2.437,0,0,1,.519-.312,1.158,1.158,0,0,1,.447-.1.271.271,0,0,1,.193.063.293.293,0,0,1,.079.189q-.012.191-.012.367a.269.269,0,0,0,.105.22.428.428,0,0,0,.293.1.3.3,0,0,0,.105-.019.758.758,0,0,0,.106-.05l.082-.065c.026-.021.053-.041.081-.061.016-.005.04-.014.07-.027a.6.6,0,0,0,.087-.046q.084.115.142.2a1.279,1.279,0,0,1,.087.151c-.093.054-.184.109-.275.167s-.186.111-.287.163a1.907,1.907,0,0,1-.35.132,1.341,1.341,0,0,1-.338.044,1.081,1.081,0,0,1-.6-.142.571.571,0,0,1-.248-.428.181.181,0,0,0-.015-.071.2.2,0,0,0-.063-.074l-.066.04c-.024.014-.052.032-.084.055l-.2.1c-.078.038-.17.084-.274.138q-.212.138-.356.226l-.205.126a2.814,2.814,0,0,1-.281.13q-.16.065-.359.134c-.084.028-.157.051-.217.067a.567.567,0,0,1-.133.025.8.8,0,0,1-.429-.09.306.306,0,0,1-.139-.277.325.325,0,0,1,.069-.2.768.768,0,0,1,.208-.182.347.347,0,0,0,.012-.081.069.069,0,0,0-.015-.04.516.516,0,0,0-.039-.048l-.082-.12c-.03-.045-.063-.092-.1-.144a.5.5,0,0,0,.069-.059C482.125,370.288,482.161,370.251,482.2,370.208Z" transform="translate(-339 -158.757)"/>
    <path class="cls-1" d="M486.65,370.376a.6.6,0,0,1,.063-.059l.093-.079c.041-.02.093-.05.157-.088s.137-.083.217-.134l.266-.189.38-.273c.064-.043.145-.1.242-.167l.344-.243a1.213,1.213,0,0,1,.362-.187,1.346,1.346,0,0,1,.411-.062.49.49,0,0,1,.32.086.308.308,0,0,1,.1.25,1.137,1.137,0,0,1-.1.336q-.1.249-.32.658l-.1.145a.309.309,0,0,0-.048.088.208.208,0,0,0-.012.058q0,.023.042.057a.247.247,0,0,0,.057-.03l.063-.046a.637.637,0,0,1,.148-.121q.1-.063.238-.14a.79.79,0,0,1,.142-.128,1.344,1.344,0,0,1,.2-.117.581.581,0,0,0,.063-.05,1.063,1.063,0,0,1,.093-.072,1.959,1.959,0,0,1,.188-.1c.072-.036.157-.072.253-.111s.206-.063.293-.084a1,1,0,0,1,.226-.031.9.9,0,0,1,.332.058.612.612,0,0,1,.248.18c.081.158.157.3.229.439a.522.522,0,0,0,.148.176.31.31,0,0,0,.184.058.5.5,0,0,0,.142-.019.425.425,0,0,0,.118-.058l.241.352-.211.111-.211.111a1.083,1.083,0,0,1-.26.113.926.926,0,0,1-.507-.005.61.61,0,0,1-.218-.115.637.637,0,0,1-.121-.113q-.073-.082-.169-.2a1.84,1.84,0,0,1-.178-.132l-.232-.193-.054-.012a1.192,1.192,0,0,0-.226.069,2.073,2.073,0,0,0-.238.119,2.48,2.48,0,0,1-.392.191.352.352,0,0,0-.163.088,1.965,1.965,0,0,1-.29.237q-.205.146-.513.344l-.157.1-.157.093a.586.586,0,0,1-.178.06,1.323,1.323,0,0,1-.22.017q-.242,0-.263-.1c-.014-.07-.027-.141-.039-.212q.09-.16.205-.4t.264-.562a.106.106,0,0,1,.021-.051c.014-.021.031-.05.051-.086a.439.439,0,0,0,.042-.086.215.215,0,0,0,.012-.063.047.047,0,0,0-.03-.042.227.227,0,0,0-.1-.015.407.407,0,0,0-.16.046,1.511,1.511,0,0,0-.238.145c-.113.077-.2.137-.272.18a.786.786,0,0,1-.139.077,1.292,1.292,0,0,0-.142.076l-.185.111-.036.046a.365.365,0,0,1-.079.069.762.762,0,0,0-.084-.141Q486.747,370.5,486.65,370.376Z" transform="translate(-339 -158.757)"/>
    <path class="cls-1" d="M492.422,370.376l.054-.031c0-.028.032-.061.084-.1a1.87,1.87,0,0,1,.224-.134c.06-.028.124-.055.19-.08s.13-.054.19-.084l.736-.4a3.57,3.57,0,0,1,.411-.2,3.667,3.667,0,0,1,.386-.132,1.515,1.515,0,0,1,.474-.21,2.016,2.016,0,0,1,.564-.107.262.262,0,0,1,.136.031.13.13,0,0,1,.063.076v.21a.255.255,0,0,1-.1.2.974.974,0,0,1-.3.159c-.088.025-.177.054-.266.084s-.177.059-.266.084a1.973,1.973,0,0,1-.257.144q-.208.105-.564.281c-.108.054-.2.1-.271.144a.971.971,0,0,0-.151.1.554.554,0,0,0-.094.161.576.576,0,0,0-.033.2.263.263,0,0,0,.042.151.291.291,0,0,0,.126.1,1.1,1.1,0,0,0,.166.053q.106.027.263.054.091-.023.239-.044c.1-.014.208-.033.329-.056.137-.051.276-.1.419-.16s.285-.114.426-.172l.075-.025a.447.447,0,0,0,.094-.04,1.481,1.481,0,0,1,.166-.115q.105-.064.256-.149a3.317,3.317,0,0,1,.242.352q-.223.115-.453.235a2.452,2.452,0,0,1-.525.2c-.064.033-.119.063-.163.092a2.329,2.329,0,0,1-.7.289,3.891,3.891,0,0,1-.915.1,1.615,1.615,0,0,1-.205-.012.884.884,0,0,1-.151-.031q-.182-.076-.308-.134a2.182,2.182,0,0,1-.223-.116.549.549,0,0,1-.133-.105.281.281,0,0,1-.076-.13.708.708,0,0,1-.021-.187.284.284,0,0,1,.03-.1.293.293,0,0,0,.03-.1,1.42,1.42,0,0,0-.1-.172A2.1,2.1,0,0,0,492.422,370.376Z" transform="translate(-339 -158.757)"/>
    <path class="cls-1" d="M496.232,370.376a1.191,1.191,0,0,1,.187-.163,2.189,2.189,0,0,1,.29-.17c.012-.051.024-.1.036-.151a.933.933,0,0,0,.024-.151.839.839,0,0,1,.058-.126c.026-.048.055-.1.087-.157s.085-.126.148-.21a2.951,2.951,0,0,1,.245-.283c.084-.059.173-.123.266-.193l.278-.212c.044-.022.092-.044.145-.065s.1-.043.157-.069c.048-.01.1-.019.163-.026a1.552,1.552,0,0,1,.2-.012,1.263,1.263,0,0,1,.244.019.388.388,0,0,1,.154.065.349.349,0,0,1,.082.092.964.964,0,0,1,.075.149c.012.051.026.107.042.168,0-.015-.007-.009-.021.019s-.035.073-.063.134l-.055.123a1.344,1.344,0,0,1-.38.424,7.748,7.748,0,0,1-.8.55.277.277,0,0,0-.072.067.142.142,0,0,0-.03.086.231.231,0,0,0,.045.142.272.272,0,0,0,.13.092.8.8,0,0,0,.154.046c.07.015.154.029.25.042a2.993,2.993,0,0,0,.429-.05,2.456,2.456,0,0,0,.344-.092q.03-.012.1-.032a.874.874,0,0,0,.133-.056c.052.074.1.14.139.2s.072.11.1.153a3.83,3.83,0,0,1-.625.323,1.435,1.435,0,0,1-.516.109.955.955,0,0,1-.22.055,2.116,2.116,0,0,1-.293.018,1.686,1.686,0,0,1-.4-.042.845.845,0,0,1-.287-.123.511.511,0,0,1-.121-.113,2.013,2.013,0,0,1-.126-.178.549.549,0,0,0-.1-.124.167.167,0,0,0-.109-.041.261.261,0,0,0-.109.029.724.724,0,0,0-.133.086.762.762,0,0,0-.084-.141Q496.329,370.5,496.232,370.376Zm1.932-1.242a.614.614,0,0,0-.356.22c-.149.146-.223.254-.223.323a.036.036,0,0,0,.015.033.137.137,0,0,0,.063.01.145.145,0,0,0,.109-.044l.079-.083c.044-.025.087-.053.129-.082l.124-.086a.451.451,0,0,0,.108-.107.188.188,0,0,0,.037-.107.074.074,0,0,0-.021-.055A.085.085,0,0,0,498.164,369.134Z" transform="translate(-339 -158.757)"/>
    <path class="cls-1" d="M499.462,370.208l.549-.229c.02-.013.044-.03.072-.052a.7.7,0,0,0,.1-.094.347.347,0,0,1,.112-.084,1.012,1.012,0,0,1,.16-.061c.032-.025.079-.057.139-.1s.137-.083.229-.134c.044-.015.1-.038.169-.067a1.81,1.81,0,0,0,.223-.117,6.917,6.917,0,0,1,.963-.493,1.958,1.958,0,0,1,.7-.165.5.5,0,0,1,.232.042.13.13,0,0,1,.075.119.23.23,0,0,1-.045.141.337.337,0,0,1-.142.1q-.151.069-.326.153a2.511,2.511,0,0,1-.235.17,2.748,2.748,0,0,1-.326.178q-.06.05-.1.088c-.02.013-.059.036-.115.069s-.131.071-.223.115a1.071,1.071,0,0,1-.263.218c-.135.089-.315.2-.541.321a1.544,1.544,0,0,0-.151.122l-.284.252.042.035a1.32,1.32,0,0,0,.278-.092,2.888,2.888,0,0,0,.32-.172l.335-.193a2.083,2.083,0,0,1,.184-.1l.084-.03.1-.038a2.437,2.437,0,0,1,.519-.312,1.158,1.158,0,0,1,.447-.1.271.271,0,0,1,.193.063.293.293,0,0,1,.079.189q-.012.191-.012.367a.269.269,0,0,0,.105.22.428.428,0,0,0,.293.1.3.3,0,0,0,.105-.019.758.758,0,0,0,.106-.05l.082-.065c.026-.021.053-.041.081-.061.016-.005.04-.014.07-.027a.6.6,0,0,0,.087-.046q.084.115.142.2a1.279,1.279,0,0,1,.087.151c-.093.054-.184.109-.275.167s-.186.111-.287.163a1.907,1.907,0,0,1-.35.132,1.341,1.341,0,0,1-.338.044,1.081,1.081,0,0,1-.6-.142.571.571,0,0,1-.248-.428.181.181,0,0,0-.015-.071.2.2,0,0,0-.063-.074l-.066.04c-.024.014-.052.032-.084.055l-.2.1c-.078.038-.17.084-.274.138q-.212.138-.356.226l-.205.126a2.814,2.814,0,0,1-.281.13q-.16.065-.359.134c-.084.028-.157.051-.217.067a.567.567,0,0,1-.133.025.8.8,0,0,1-.429-.09.306.306,0,0,1-.139-.277.325.325,0,0,1,.069-.2.768.768,0,0,1,.208-.182.347.347,0,0,0,.012-.081.069.069,0,0,0-.015-.04.516.516,0,0,0-.039-.048l-.082-.12c-.03-.045-.063-.092-.1-.144a.5.5,0,0,0,.069-.059C499.386,370.288,499.421,370.251,499.462,370.208Z" transform="translate(-339 -158.757)"/>
    <path class="cls-1" d="M503.912,370.376a.6.6,0,0,1,.063-.059l.093-.079c.041-.02.093-.05.157-.088s.137-.083.217-.134l.266-.189.38-.273c.064-.043.145-.1.242-.167l.344-.243a1.213,1.213,0,0,1,.362-.187,1.346,1.346,0,0,1,.411-.062.49.49,0,0,1,.32.086.308.308,0,0,1,.1.25,1.137,1.137,0,0,1-.1.336q-.1.249-.32.658l-.1.145a.309.309,0,0,0-.048.088.208.208,0,0,0-.012.058q0,.023.042.057a.247.247,0,0,0,.057-.03l.063-.046a.637.637,0,0,1,.148-.121q.1-.063.238-.14a.79.79,0,0,1,.142-.128,1.344,1.344,0,0,1,.2-.117.581.581,0,0,0,.063-.05,1.063,1.063,0,0,1,.093-.072,1.959,1.959,0,0,1,.188-.1c.072-.036.157-.072.253-.111s.206-.063.293-.084a1,1,0,0,1,.226-.031.9.9,0,0,1,.332.058.612.612,0,0,1,.248.18c.081.158.157.3.229.439a.522.522,0,0,0,.148.176.31.31,0,0,0,.184.058.5.5,0,0,0,.142-.019.425.425,0,0,0,.118-.058l.241.352-.211.111-.211.111a1.083,1.083,0,0,1-.26.113.926.926,0,0,1-.507-.005.61.61,0,0,1-.218-.115.637.637,0,0,1-.121-.113q-.073-.082-.169-.2a1.84,1.84,0,0,1-.178-.132l-.232-.193-.054-.012a1.192,1.192,0,0,0-.226.069,2.073,2.073,0,0,0-.238.119,2.48,2.48,0,0,1-.392.191.352.352,0,0,0-.163.088,1.965,1.965,0,0,1-.29.237q-.205.146-.513.344l-.157.1-.157.093a.586.586,0,0,1-.178.06,1.323,1.323,0,0,1-.22.017q-.242,0-.263-.1c-.014-.07-.027-.141-.039-.212q.09-.16.205-.4t.264-.562a.106.106,0,0,1,.021-.051c.014-.021.031-.05.051-.086a.439.439,0,0,0,.042-.086.215.215,0,0,0,.012-.063.047.047,0,0,0-.03-.042.227.227,0,0,0-.1-.015.407.407,0,0,0-.16.046,1.511,1.511,0,0,0-.238.145c-.113.077-.2.137-.272.18a.786.786,0,0,1-.139.077,1.292,1.292,0,0,0-.142.076l-.185.111-.036.046a.365.365,0,0,1-.079.069.762.762,0,0,0-.084-.141Q504.008,370.5,503.912,370.376Z" transform="translate(-339 -158.757)"/>
    <path class="cls-1" d="M509.683,370.376a.134.134,0,0,0,.039-.027.052.052,0,0,0,.015-.038,1.923,1.923,0,0,0,.232-.147q.13-.094.293-.22c.088-.076.18-.153.274-.229s.2-.153.305-.229q.133-.115.263-.239t.274-.243q.242-.073.375-.1a1.013,1.013,0,0,1,.181-.03.226.226,0,0,1,.139.036.123.123,0,0,1,.048.1.175.175,0,0,1-.018.065c-.012.028-.026.059-.042.092q-.042.077-.1.157a2.579,2.579,0,0,1-.115.268q-.067.134-.127.264a2.913,2.913,0,0,0-.094.3,1.092,1.092,0,0,0-.033.252,1.12,1.12,0,0,0,.033.317c.022.069.054.1.094.092l.151-.055.211-.075q.108-.073.245-.18t.329-.252q.108-.107.223-.21l.1-.073c.038-.028.073-.056.105-.084a.845.845,0,0,1,.257-.273.583.583,0,0,1,.317-.09,1.011,1.011,0,0,1,.25.025.226.226,0,0,1,.13.075.257.257,0,0,1,.03.092,1,1,0,0,1,.012.172.417.417,0,0,0,.027.122.425.425,0,0,1,.027.119.271.271,0,0,0,.079.212.353.353,0,0,0,.241.07.669.669,0,0,0,.115-.011c.044-.008.088-.017.133-.027l.242.352q-.363.138-.595.208a1.327,1.327,0,0,1-.347.071,1.079,1.079,0,0,1-.5-.1.611.611,0,0,1-.284-.294.24.24,0,0,0-.051-.091.635.635,0,0,0-.1-.092c-.036.025-.078.056-.124.092s-.1.071-.148.107c-.108.084-.217.166-.326.247s-.22.16-.332.239a1.528,1.528,0,0,1-.426.228,1.3,1.3,0,0,1-.4.071.833.833,0,0,1-.447-.105.476.476,0,0,1-.217-.312,3.152,3.152,0,0,1-.073-.31.3.3,0,0,1-.006-.134.757.757,0,0,0-.033-.168c-.014-.039-.035-.058-.063-.058l-.036.012-.344.226a.465.465,0,0,1-.061.067c-.028.026-.066.059-.115.1a.762.762,0,0,0-.084-.141Q509.78,370.5,509.683,370.376Z" transform="translate(-339 -158.757)"/>
    <path class="cls-1" d="M515.865,367.727c-.012-.051-.026-.1-.042-.161,0,.023.006.005.018-.054s.028-.159.048-.3a.375.375,0,0,0,.07-.075l.039-.059a.734.734,0,0,1-.082-.071.08.08,0,0,1-.027-.048q.048-.233.091-.443c0-.038.039-.082.105-.13a1.822,1.822,0,0,1,.275-.157,2.336,2.336,0,0,1,.271-.122,2.421,2.421,0,0,1,.253-.081.689.689,0,0,0,.193-.057.106.106,0,0,1,.066-.023.183.183,0,0,1,.148.061.281.281,0,0,1,.051.184.481.481,0,0,1-.051.18.476.476,0,0,0-.051.168c0,.015,0,.074.009.176s.015.249.027.44a1.36,1.36,0,0,0,.094.439,3.672,3.672,0,0,0,.227.485,1.576,1.576,0,0,0,.4.491.78.78,0,0,0,.478.163,1.316,1.316,0,0,0,.543-.168,5.675,5.675,0,0,0,.8-.5q.35-.26.625-.485a4.155,4.155,0,0,0,.444-.413,1.871,1.871,0,0,1,.369-.3,3.015,3.015,0,0,1,.483-.245l.139-.05a.277.277,0,0,1,.084-.019.178.178,0,0,1,.164.1.654.654,0,0,1,.057.306q-.037.188-.061.371a4.384,4.384,0,0,1-.16.6,4.909,4.909,0,0,1-.274.642q-.084.168-.145.294a1.308,1.308,0,0,0-.084.214c-.008.033-.019.074-.033.124s-.029.108-.045.174c-.04.064-.084.127-.132.191a.642.642,0,0,0-.1.183,1.823,1.823,0,0,0-.069.249.514.514,0,0,1-.006.069c0,.028-.008.058-.012.088q-.138.39-.283.757a.35.35,0,0,1-.054.088.736.736,0,0,0-.178.065,1.156,1.156,0,0,0-.208.138,1.417,1.417,0,0,1-.181.113.276.276,0,0,1-.108.037.141.141,0,0,1-.079-.02.071.071,0,0,1-.03-.065.149.149,0,0,1,.018-.049,1.291,1.291,0,0,0,.148-.375,6,6,0,0,0,.118-.6,3.444,3.444,0,0,1,.1-.413q.091-.336.266-.933c.016-.064.037-.142.063-.235s.059-.2.1-.319c.028-.062.051-.114.069-.159a.305.305,0,0,0,.027-.1.068.068,0,0,0-.021-.055.1.1,0,0,0-.063-.018.337.337,0,0,0-.133.06,2.316,2.316,0,0,0-.242.178c-.056.043-.114.089-.172.138s-.12.1-.185.141c-.109.071-.209.139-.3.2l-.447.283-.148.058-.208.08a.923.923,0,0,1-.366.2,1.485,1.485,0,0,1-.462.083,1.2,1.2,0,0,1-.486-.1,1.529,1.529,0,0,1-.45-.312l-.19-.206q-.094-.1-.2-.207l-.03,0a1.079,1.079,0,0,0-.112.31q-.081.286-.208.841-.138.57-.211.895a2.607,2.607,0,0,0-.073.42.339.339,0,0,1-.075.2.284.284,0,0,1-.2.082c-.044,0-.107.01-.187.021l-.29.044a.22.22,0,0,1-.054-.013c-.016-.006-.024-.016-.024-.029l.037-.141-.061-.146c.024-.079.048-.155.072-.229.016-.153.03-.3.042-.432a.722.722,0,0,1,.045-.142.459.459,0,0,0,.039-.149.259.259,0,0,0-.018-.079.256.256,0,0,1-.018-.078,2.772,2.772,0,0,1,.105-.623,2.777,2.777,0,0,0,.105-.627c-.012-.059-.026-.117-.042-.176q.03-.138.1-.344T515.865,367.727Z" transform="translate(-339 -158.757)"/>
    <path class="cls-1" d="M524.022,371.263a.153.153,0,0,1-.045.1.455.455,0,0,1-.136.1.223.223,0,0,1-.075.086.219.219,0,0,1-.118.028.77.77,0,0,1-.422-.111.759.759,0,0,1-.278-.329l.042-.027-.061-.1q.03-.062.054-.119l.048-.115a.193.193,0,0,1,.1-.1.377.377,0,0,1,.16-.033.8.8,0,0,1,.293.054.7.7,0,0,1,.244.164.658.658,0,0,1,.148.2A.5.5,0,0,1,524.022,371.263Z" transform="translate(-339 -158.757)"/>
  </g>
</svg>
